<?xml version="1.0" encoding="UTF-8" standalone="no"?>
<svg
   xmlns:dc="http://purl.org/dc/elements/1.1/"
   xmlns:cc="http://creativecommons.org/ns#"
   xmlns:rdf="http://www.w3.org/1999/02/22-rdf-syntax-ns#"
   xmlns:svg="http://www.w3.org/2000/svg"
   xmlns="http://www.w3.org/2000/svg"
   xmlns:sodipodi="http://sodipodi.sourceforge.net/DTD/sodipodi-0.dtd"
   xmlns:inkscape="http://www.inkscape.org/namespaces/inkscape"
   height="16"
   width="16"
   version="1.1"
   id="svg22"
   sodipodi:docname="button.svg"
   inkscape:version="0.92.4 (unknown)">
  <metadata
     id="metadata28">
    <rdf:RDF>
      <cc:Work
         rdf:about="">
        <dc:format>image/svg+xml</dc:format>
        <dc:type
           rdf:resource="http://purl.org/dc/dcmitype/StillImage" />
        <dc:title />
      </cc:Work>
    </rdf:RDF>
  </metadata>
  <defs
     id="defs26" />
  <sodipodi:namedview
     pagecolor="#ffffff"
     bordercolor="#666666"
     borderopacity="1"
     objecttolerance="10"
     gridtolerance="10"
     guidetolerance="10"
     inkscape:pageopacity="0"
     inkscape:pageshadow="2"
     inkscape:window-width="1920"
     inkscape:window-height="1026"
     id="namedview24"
     showgrid="false"
     inkscape:pagecheckerboard="true"
     inkscape:zoom="25.221643"
     inkscape:cx="6.3621292"
     inkscape:cy="3.7543954"
     inkscape:window-x="0"
     inkscape:window-y="24"
     inkscape:window-maximized="1"
     inkscape:current-layer="g825" />
  <g
     transform="translate(-19,-287.29999)"
     id="g20">
    <path
       d="m 180,145 1.45,-1 0.55,1 h -2"
       id="path10"
       inkscape:connector-curvature="0"
       style="fill:#f4f4f8;fill-rule:evenodd;stroke:none" />
    <g
       id="g825"
       transform="matrix(1.1428571,0,0,1.1818182,-2.7142849,119.48181)">
      <path
         id="path4"
         d="m 32.125,152.79691 v 1.89539 h -12.25 v -1.89539 h 12.25"
         inkscape:connector-curvature="0"
         style="fill:#9595a0;fill-opacity:1;fill-rule:evenodd;stroke:none;stroke-width:0.54912519"
         sodipodi:nodetypes="ccccc" />
      <path
         sodipodi:nodetypes="ccccc"
         style="fill:#ffffff;fill-rule:evenodd;stroke:none;stroke-width:0.54912519"
         inkscape:connector-curvature="0"
         id="path8"
         d="m 32.125,152.79691 h -12.25 v -9.95076 h 12.25 v 9.95076" />
      <g
         aria-label="B"
         transform="matrix(0.23054795,0,0,0.20606673,14.900659,119.89667)"
         style="font-style:normal;font-variant:normal;font-weight:normal;font-stretch:normal;font-size:34.41824341px;line-height:1.25;font-family:'Arial Black';-inkscape-font-specification:'Arial Black, ';letter-spacing:0px;word-spacing:0px;fill:#414146;fill-opacity:1;stroke:none;stroke-width:0.86045605"
         id="text824">
        <path
           d="m 36.757392,123.6878 h 14.251304 q 3.562826,0 5.46188,1.7646 1.915859,1.76461 1.915859,4.36951 0,2.18475 -1.361269,3.74769 -0.907512,1.04195 -2.655313,1.64696 2.655313,0.63862 3.898941,2.20156 1.260434,1.54613 1.260434,3.89894 0,1.91586 -0.890706,3.44519 -0.890707,1.52932 -2.436839,2.42003 -0.95793,0.55459 -2.890595,0.80668 -2.571284,0.33611 -3.411574,0.33611 H 36.757392 Z m 7.680243,9.66332 h 3.310739 q 1.781413,0 2.47045,-0.60501 0.705843,-0.62181 0.705843,-1.78141 0,-1.07557 -0.705843,-1.68058 -0.689037,-0.60501 -2.420032,-0.60501 h -3.361157 z m 0,9.68013 h 3.882136 q 1.966276,0 2.772954,-0.68904 0.806678,-0.70584 0.806678,-1.88224 0,-1.09238 -0.806678,-1.7478 -0.789872,-0.67224 -2.78976,-0.67224 h -3.86533 z"
           style="font-style:normal;font-variant:normal;font-weight:normal;font-stretch:normal;font-family:'Arial Black';-inkscape-font-specification:'Arial Black, ';fill:#414146;fill-opacity:1;stroke-width:0.86045605"
           id="path826"
           inkscape:connector-curvature="0" />
      </g>
    </g>
  </g>
</svg>
