<?xml version="1.0" encoding="UTF-8" standalone="no"?>
<!-- Generator: Adobe Illustrator 19.0.0, SVG Export Plug-In . SVG Version: 6.00 Build 0)  -->

<svg
   xmlns:dc="http://purl.org/dc/elements/1.1/"
   xmlns:cc="http://creativecommons.org/ns#"
   xmlns:rdf="http://www.w3.org/1999/02/22-rdf-syntax-ns#"
   xmlns:svg="http://www.w3.org/2000/svg"
   xmlns="http://www.w3.org/2000/svg"
   xmlns:sodipodi="http://sodipodi.sourceforge.net/DTD/sodipodi-0.dtd"
   xmlns:inkscape="http://www.inkscape.org/namespaces/inkscape"
   version="1.1"
   id="Layer_1"
   x="0px"
   y="0px"
   viewBox="0 0 16 16"
   xml:space="preserve"
   sodipodi:docname="eye-mask.svg"
   width="16"
   height="16"
   inkscape:version="0.92.4 (unknown)"><metadata
   id="metadata43"><rdf:RDF><cc:Work
       rdf:about=""><dc:format>image/svg+xml</dc:format><dc:type
         rdf:resource="http://purl.org/dc/dcmitype/StillImage" /><dc:title></dc:title></cc:Work></rdf:RDF></metadata><defs
   id="defs41" /><sodipodi:namedview
   pagecolor="#ffffff"
   bordercolor="#666666"
   borderopacity="1"
   objecttolerance="10"
   gridtolerance="10"
   guidetolerance="10"
   inkscape:pageopacity="0"
   inkscape:pageshadow="2"
   inkscape:window-width="1920"
   inkscape:window-height="1026"
   id="namedview39"
   showgrid="false"
   inkscape:pagecheckerboard="true"
   inkscape:zoom="20.85965"
   inkscape:cx="5.9777547"
   inkscape:cy="1.4052694"
   inkscape:window-x="0"
   inkscape:window-y="24"
   inkscape:window-maximized="1"
   inkscape:current-layer="Layer_1" />
<g
   id="g6"
   transform="matrix(0.03125,0,0,0.03209786,0,2.2555084)"
   style="fill:#ffffff;fill-opacity:1">
	<g
   id="g4"
   style="fill:#ffffff;fill-opacity:1">
		<path
   d="M 0,86.519531 C 16.57658,163.6367 52.487056,271.41364 143.8828,272.41806 c 63.60816,0.69904 96.21419,-24.60499 112.11719,-44.33399 15.903,19.729 48.5053,44.45425 112.11719,44.33399 C 446.31786,272.27023 496.80496,168.96009 512,86.517578 L 268.8418,85.503906 V 141.1875 H 243.1582 V 85.503906 Z m 154.82227,56.769529 c 42.26076,0.31778 61.6875,40.42969 61.6875,40.42969 -67.04,50.654 -116.667973,-21.375 -116.667973,-21.375 21.421863,-14.07892 39.694663,-19.16963 54.980473,-19.05469 z m 202.35351,0 c 15.28585,-0.11494 33.5603,4.97577 54.98242,19.05469 0,0 -49.62797,72.029 -116.66797,21.375 0,0 19.42467,-40.11191 61.68555,-40.42969 z"
   id="path2"
   inkscape:connector-curvature="0"
   sodipodi:nodetypes="cscsccccccsccssccs"
   style="fill:#ffffff;fill-opacity:1" />
	</g>
</g>
<g
   id="g8"
   transform="translate(0,-496)">
</g>
<g
   id="g10"
   transform="translate(0,-496)">
</g>
<g
   id="g12"
   transform="translate(0,-496)">
</g>
<g
   id="g14"
   transform="translate(0,-496)">
</g>
<g
   id="g16"
   transform="translate(0,-496)">
</g>
<g
   id="g18"
   transform="translate(0,-496)">
</g>
<g
   id="g20"
   transform="translate(0,-496)">
</g>
<g
   id="g22"
   transform="translate(0,-496)">
</g>
<g
   id="g24"
   transform="translate(0,-496)">
</g>
<g
   id="g26"
   transform="translate(0,-496)">
</g>
<g
   id="g28"
   transform="translate(0,-496)">
</g>
<g
   id="g30"
   transform="translate(0,-496)">
</g>
<g
   id="g32"
   transform="translate(0,-496)">
</g>
<g
   id="g34"
   transform="translate(0,-496)">
</g>
<g
   id="g36"
   transform="translate(0,-496)">
</g>
</svg>