<?xml version="1.0" encoding="UTF-8" standalone="no"?>
<svg
   xmlns:dc="http://purl.org/dc/elements/1.1/"
   xmlns:cc="http://creativecommons.org/ns#"
   xmlns:rdf="http://www.w3.org/1999/02/22-rdf-syntax-ns#"
   xmlns:svg="http://www.w3.org/2000/svg"
   xmlns="http://www.w3.org/2000/svg"
   xmlns:sodipodi="http://sodipodi.sourceforge.net/DTD/sodipodi-0.dtd"
   xmlns:inkscape="http://www.inkscape.org/namespaces/inkscape"
   height="16"
   viewBox="1 1 11.999999 11.999999"
   width="16"
   version="1.1"
   id="svg16"
   sodipodi:docname="common.svg"
   inkscape:version="0.92.4 (unknown)">
  <metadata
     id="metadata22">
    <rdf:RDF>
      <cc:Work
         rdf:about="">
        <dc:format>image/svg+xml</dc:format>
        <dc:type
           rdf:resource="http://purl.org/dc/dcmitype/StillImage" />
        <dc:title></dc:title>
      </cc:Work>
    </rdf:RDF>
  </metadata>
  <defs
     id="defs20" />
  <sodipodi:namedview
     pagecolor="#ffffff"
     bordercolor="#666666"
     borderopacity="1"
     objecttolerance="10"
     gridtolerance="10"
     guidetolerance="10"
     inkscape:pageopacity="0"
     inkscape:pageshadow="2"
     inkscape:window-width="1920"
     inkscape:window-height="1026"
     id="namedview18"
     showgrid="false"
     inkscape:pagecheckerboard="true"
     units="px"
     inkscape:zoom="11.0625"
     inkscape:cx="34.505031"
     inkscape:cy="28.810383"
     inkscape:window-x="0"
     inkscape:window-y="24"
     inkscape:window-maximized="1"
     inkscape:current-layer="svg16" />
  <path
     d="M 11.938695,6.0004869 H 11.45484 C 11.340044,5.489312 11.136648,4.9979208 10.856909,4.5564484 l 0.342063,-0.3420637 c 0.0584,-0.058275 0.09116,-0.13755 0.09116,-0.2201413 0,-0.082512 -0.03276,-0.1617349 -0.09116,-0.2200537 L 10.225573,2.8010236 c -0.121525,-0.12152 -0.3186728,-0.12152 -0.4401972,0 L 9.4434721,3.1429298 C 9.0016731,2.8631136 8.5103668,2.6597111 7.9995142,2.5450774 V 2.0612987 C 7.9995142,1.8893875 7.8601251,1.75 7.6882121,1.75 H 6.3117856 c -0.171913,0 -0.3113021,0.1393875 -0.3113021,0.3112987 V 2.5451561 C 5.4893104,2.6599561 4.997924,2.8633499 4.5564454,3.1430873 L 4.2143816,2.8010236 c -0.058319,-0.058363 -0.1375465,-0.091158 -0.2201385,-0.091158 -0.082512,0 -0.1617394,0.032725 -0.2200585,0.091158 L 2.8010251,3.774426 c -0.1215248,0.1215287 -0.1215248,0.3186749 0,0.4401949 L 3.1429287,4.5565271 C 2.8631093,4.9983233 2.6597135,5.4896357 2.545078,6.0004869 H 2.061302 c -0.1719131,0 -0.3113021,0.1393879 -0.3113021,0.3112992 v 1.3764273 c 0,0.1719112 0.139389,0.3112987 0.3113021,0.3112987 H 2.5451581 C 2.6599538,8.510687 2.8633496,9.0020782 3.143089,9.4435511 l -0.3420639,0.342063 c -0.058399,0.05828 -0.091164,0.13755 -0.091164,0.2201419 0,0.08251 0.032764,0.161743 0.091164,0.220062 l 0.9733999,0.973157 c 0.1215248,0.12152 0.318592,0.12152 0.4401969,0 l 0.3419036,-0.341906 c 0.4417991,0.279816 0.9331052,0.483219 1.443958,0.597853 V 11.9387 c 0,0.171912 0.1393891,0.311299 0.3113021,0.311299 h 1.3764265 c 0.171913,0 0.3113021,-0.139387 0.3113021,-0.311299 v -0.483857 c 0.5111731,-0.1148 1.0025594,-0.318194 1.4440381,-0.597931 l 0.3420641,0.342063 c 0.058319,0.05836 0.1375465,0.09117 0.2201386,0.09117 0.08251,0 0.161739,-0.03281 0.220058,-0.09117 l 0.973159,-0.973402 c 0.121526,-0.12152 0.121526,-0.3186749 0,-0.4401949 l -0.341903,-0.341906 c 0.279819,-0.4417964 0.483215,-0.9331001 0.59785,-1.44396 h 0.483776 c 0.171913,0 0.311303,-0.1393875 0.311303,-0.3112987 V 6.3117861 c 0,-0.1719113 -0.13939,-0.3112992 -0.311303,-0.3112992 z M 8.9984687,8.9984732 c -1.1019742,1.1018878 -2.8949655,1.1018878 -3.9968597,0 -1.1019742,-1.1019748 -1.1019742,-2.8949725 0,-3.9968599 0.550907,-0.5509874 1.2746885,-0.8264811 1.9983898,-0.8264811 0.7237013,0 1.4474828,0.2754937 1.9983898,0.8264811 1.1019744,1.1018874 1.1019744,2.8948851 8.01e-5,3.9968599 z m 0,0"
     id="path14"
     inkscape:connector-curvature="0"
     style="fill:#ffffff;fill-opacity:1;stroke-width:0.02050781" />
</svg>
