<?xml version="1.0" encoding="UTF-8" standalone="no"?>
<!-- Generator: Adobe Illustrator 16.0.0, SVG Export Plug-In . SVG Version: 6.00 Build 0)  -->

<svg
   xmlns:dc="http://purl.org/dc/elements/1.1/"
   xmlns:cc="http://creativecommons.org/ns#"
   xmlns:rdf="http://www.w3.org/1999/02/22-rdf-syntax-ns#"
   xmlns:svg="http://www.w3.org/2000/svg"
   xmlns="http://www.w3.org/2000/svg"
   xmlns:sodipodi="http://sodipodi.sourceforge.net/DTD/sodipodi-0.dtd"
   xmlns:inkscape="http://www.inkscape.org/namespaces/inkscape"
   version="1.1"
   id="Capa_1"
   x="0px"
   y="0px"
   width="16"
   height="16"
   viewBox="0 0 16 16"
   xml:space="preserve"
   sodipodi:docname="folder-closed-black-shape.svg"
   inkscape:version="0.92.4 (unknown)"><metadata
   id="metadata41"><rdf:RDF><cc:Work
       rdf:about=""><dc:format>image/svg+xml</dc:format><dc:type
         rdf:resource="http://purl.org/dc/dcmitype/StillImage" /><dc:title></dc:title></cc:Work></rdf:RDF></metadata><defs
   id="defs39" /><sodipodi:namedview
   pagecolor="#ffffff"
   bordercolor="#666666"
   borderopacity="1"
   objecttolerance="10"
   gridtolerance="10"
   guidetolerance="10"
   inkscape:pageopacity="0"
   inkscape:pageshadow="2"
   inkscape:window-width="1920"
   inkscape:window-height="1026"
   id="namedview37"
   showgrid="false"
   inkscape:pagecheckerboard="true"
   inkscape:zoom="11.240313"
   inkscape:cx="19.784308"
   inkscape:cy="33.440024"
   inkscape:window-x="0"
   inkscape:window-y="24"
   inkscape:window-maximized="1"
   inkscape:current-layer="Capa_1" />
<g
   id="g4"
   transform="matrix(0.03367847,0,0,0.03482639,0,-0.27269542)"
   style="fill:#ffffff;fill-opacity:1">
	<path
   d="m 456.239,128.475 c -12.56,-12.562 -27.597,-18.842 -45.11,-18.842 h -191.86 v -9.136 c 0,-17.511 -6.283,-32.548 -18.843,-45.107 -12.562,-12.562 -27.6,-18.846 -45.111,-18.846 H 63.953 C 46.438,36.544 31.402,42.827 18.842,55.39 6.28,67.949 0,82.986 0,100.497 v 274.088 c 0,17.508 6.28,32.545 18.842,45.104 12.562,12.565 27.6,18.849 45.111,18.849 h 347.175 c 17.514,0 32.551,-6.283 45.11,-18.849 12.566,-12.56 18.843,-27.597 18.843,-45.104 V 173.59 c 10e-4,-17.512 -6.276,-32.548 -18.842,-45.115 z"
   id="path2"
   inkscape:connector-curvature="0"
   style="fill:#ffffff;fill-opacity:1" />
</g>
<g
   id="g6"
   transform="translate(0,-459.082)">
</g>
<g
   id="g8"
   transform="translate(0,-459.082)">
</g>
<g
   id="g10"
   transform="translate(0,-459.082)">
</g>
<g
   id="g12"
   transform="translate(0,-459.082)">
</g>
<g
   id="g14"
   transform="translate(0,-459.082)">
</g>
<g
   id="g16"
   transform="translate(0,-459.082)">
</g>
<g
   id="g18"
   transform="translate(0,-459.082)">
</g>
<g
   id="g20"
   transform="translate(0,-459.082)">
</g>
<g
   id="g22"
   transform="translate(0,-459.082)">
</g>
<g
   id="g24"
   transform="translate(0,-459.082)">
</g>
<g
   id="g26"
   transform="translate(0,-459.082)">
</g>
<g
   id="g28"
   transform="translate(0,-459.082)">
</g>
<g
   id="g30"
   transform="translate(0,-459.082)">
</g>
<g
   id="g32"
   transform="translate(0,-459.082)">
</g>
<g
   id="g34"
   transform="translate(0,-459.082)">
</g>
</svg>