<?xml version="1.0" encoding="UTF-8" standalone="no"?>
<!-- Svg Vector Icons : http://www.onlinewebfonts.com/icon -->

<svg
   xmlns:dc="http://purl.org/dc/elements/1.1/"
   xmlns:cc="http://creativecommons.org/ns#"
   xmlns:rdf="http://www.w3.org/1999/02/22-rdf-syntax-ns#"
   xmlns:svg="http://www.w3.org/2000/svg"
   xmlns="http://www.w3.org/2000/svg"
   xmlns:sodipodi="http://sodipodi.sourceforge.net/DTD/sodipodi-0.dtd"
   xmlns:inkscape="http://www.inkscape.org/namespaces/inkscape"
   version="1.1"
   x="0px"
   y="0px"
   viewBox="0 0 15.999995 15.999997"
   enable-background="new 0 0 1000 1000"
   xml:space="preserve"
   id="svg8"
   sodipodi:docname="element.svg"
   width="15.999995"
   height="15.999997"
   inkscape:version="0.92.4 (unknown)"><defs
   id="defs12" /><sodipodi:namedview
   pagecolor="#ffffff"
   bordercolor="#666666"
   borderopacity="1"
   objecttolerance="10"
   gridtolerance="10"
   guidetolerance="10"
   inkscape:pageopacity="0"
   inkscape:pageshadow="2"
   inkscape:window-width="1920"
   inkscape:window-height="1026"
   id="namedview10"
   showgrid="false"
   inkscape:zoom="7.552"
   inkscape:cx="47.770995"
   inkscape:cy="29.679077"
   inkscape:window-x="0"
   inkscape:window-y="24"
   inkscape:window-maximized="1"
   inkscape:current-layer="svg8" />
<metadata
   id="metadata2"> Svg Vector Icons : http://www.onlinewebfonts.com/icon <rdf:RDF><cc:Work
     rdf:about=""><dc:format>image/svg+xml</dc:format><dc:type
       rdf:resource="http://purl.org/dc/dcmitype/StillImage" /></cc:Work></rdf:RDF></metadata>
<g
   id="g6"
   transform="matrix(0.01632486,0,0,0.01639848,-0.16161611,-0.20006146)"
   style="fill:#ffffff;fill-opacity:1"><path
     d="m 819,476 c 23.1,0 45.1,4.5 65.9,13.4 20.9,8.9 39.1,21.2 54.8,36.9 15.7,15.7 27.9,33.9 36.9,54.8 8.9,20.9 13.4,42.8 13.4,65.9 0,23.8 -4.5,46 -13.4,66.5 -8.9,20.5 -21.2,38.6 -36.9,54.2 -15.6,15.6 -33.9,27.9 -54.8,36.9 -20.9,8.9 -42.8,13.4 -65.9,13.4 -21.6,0 -41.9,-3.9 -60.9,-11.7 -19,-7.8 -35.9,-18.1 -50.8,-30.7 v 139.7 c 0,20.1 -7.1,37.2 -21.2,51.4 -14.2,14.2 -31.3,21.2 -51.4,21.2 h -551 c -20.1,0 -37.4,-7.1 -52,-21.2 C 17.3,952.4 10,935.2 10,915.1 v -124 c 3.7,-15.6 10.4,-27.2 20.1,-34.6 9.7,-7.4 23.8,-5.6 42.5,5.6 8.9,5.2 15.6,8.2 20.1,8.9 19.4,9.7 39.1,14.5 59.2,14.5 20.1,0 38.9,-3.7 56.4,-11.2 17.5,-7.4 32.8,-17.7 45.8,-30.7 13,-13 23.3,-28.1 30.7,-45.3 7.4,-17.2 11.2,-35.8 11.2,-55.9 0,-20.1 -3.7,-38.9 -11.2,-56.4 -7.4,-17.5 -17.7,-32.8 -30.7,-45.8 -13,-13 -28.3,-23.3 -45.8,-30.7 -17.5,-7.4 -36.3,-11.2 -56.4,-11.2 -19.4,0 -38.4,4.1 -57,12.3 -4.5,1.5 -8.2,3 -11.2,4.5 -8.9,4.5 -17.7,8.6 -26.3,12.3 -8.6,3.7 -16.2,5.2 -22.9,4.5 C 27.8,531.2 22.2,527.4 17.7,520.7 13.2,514 10.6,502.8 9.9,487.2 V 369.8 c 0,-20.1 7.3,-37.4 21.8,-52 C 46.2,303.3 63.5,296 83.7,296 H 258 c -11.9,-14.9 -21.4,-31.5 -28.5,-49.7 -7.1,-18.2 -10.6,-37.8 -10.6,-58.7 0,-24.6 4.7,-47.5 14,-68.7 9.3,-21.2 21.8,-39.7 37.4,-55.3 15.6,-15.6 34.1,-28.1 55.3,-37.4 21.2,-9.3 43.8,-14 67.6,-14 23.8,0 46.4,4.7 67.6,14 21.2,9.3 39.7,21.8 55.3,37.4 15.6,15.6 28.1,34.1 37.4,55.3 9.3,21.2 14,44.1 14,68.7 0,41.7 -13,77.8 -39.1,108.4 h 106.2 c 20.1,0 37.2,7.3 51.4,21.8 14.2,14.5 21.2,31.8 21.2,52 V 518.4 C 722.1,505.7 739,495.5 758,487.7 777.1,479.9 797.4,476 819,476 Z"
     id="path4"
     inkscape:connector-curvature="0"
     style="fill:#ffffff;fill-opacity:1" /></g>
</svg>