<?xml version="1.0" encoding="UTF-8" standalone="no"?>
<svg
   xmlns:dc="http://purl.org/dc/elements/1.1/"
   xmlns:cc="http://creativecommons.org/ns#"
   xmlns:rdf="http://www.w3.org/1999/02/22-rdf-syntax-ns#"
   xmlns:svg="http://www.w3.org/2000/svg"
   xmlns="http://www.w3.org/2000/svg"
   xmlns:sodipodi="http://sodipodi.sourceforge.net/DTD/sodipodi-0.dtd"
   xmlns:inkscape="http://www.inkscape.org/namespaces/inkscape"
   height="16"
   width="16"
   version="1.1"
   x="0px"
   y="0px"
   viewBox="0 0 5.3333333 5.3333333"
   enable-background="new 0 0 100 100"
   xml:space="preserve"
   id="svg28"
   sodipodi:docname="download.svg"
   style="fill:#000000"
   inkscape:version="0.92.4 (unknown)"><metadata
     id="metadata34"><rdf:RDF><cc:Work
         rdf:about=""><dc:format>image/svg+xml</dc:format><dc:type
           rdf:resource="http://purl.org/dc/dcmitype/StillImage" /><dc:title></dc:title></cc:Work></rdf:RDF></metadata><defs
     id="defs32" /><sodipodi:namedview
     pagecolor="#ffffff"
     bordercolor="#666666"
     borderopacity="1"
     objecttolerance="10"
     gridtolerance="10"
     guidetolerance="10"
     inkscape:pageopacity="0"
     inkscape:pageshadow="2"
     inkscape:window-width="1920"
     inkscape:window-height="1026"
     id="namedview30"
     showgrid="false"
     inkscape:pagecheckerboard="true"
     inkscape:zoom="17.800235"
     inkscape:cx="15.145989"
     inkscape:cy="12.390432"
     inkscape:window-x="0"
     inkscape:window-y="24"
     inkscape:window-maximized="1"
     inkscape:current-layer="svg28" /><g
     id="g24"
     transform="scale(0.05333333)"
     style="stroke:none;stroke-opacity:1;fill:#ffffff;fill-opacity:1"><path
       d="M 29.923,86.517 C 29.974,86.018 30,85.512 30,85 c 0,0.512 -0.026,1.018 -0.077,1.517 z"
       id="path2"
       inkscape:connector-curvature="0"
       style="stroke:none;stroke-opacity:1;fill:#ffffff;fill-opacity:1" /><path
       d="m 28.849,90.763 c 0.08,-0.193 0.143,-0.394 0.216,-0.59 -0.073,0.197 -0.136,0.398 -0.216,0.59 z"
       id="path4"
       inkscape:connector-curvature="0"
       style="stroke:none;stroke-opacity:1;fill:#ffffff;fill-opacity:1" /><path
       d="m 29.339,89.407 c 0.074,-0.241 0.127,-0.491 0.189,-0.737 -0.061,0.246 -0.115,0.496 -0.189,0.737 z"
       id="path6"
       inkscape:connector-curvature="0"
       style="stroke:none;stroke-opacity:1;fill:#ffffff;fill-opacity:1" /><path
       d="m 29.701,87.989 c 0.061,-0.303 0.098,-0.614 0.141,-0.924 -0.043,0.31 -0.08,0.621 -0.141,0.924 z"
       id="path8"
       inkscape:connector-curvature="0"
       style="stroke:none;stroke-opacity:1;fill:#ffffff;fill-opacity:1" /><path
       d="m 28.237,92.052 c 0.079,-0.148 0.145,-0.305 0.22,-0.456 -0.075,0.151 -0.141,0.307 -0.22,0.456 z"
       id="path10"
       inkscape:connector-curvature="0"
       style="stroke:none;stroke-opacity:1;fill:#ffffff;fill-opacity:1" /><path
       d="m 23.629,97.257 c 0.004,-0.003 0.007,-0.005 0.011,-0.008 -0.003,0.002 -0.007,0.005 -0.011,0.008 z"
       id="path12"
       inkscape:connector-curvature="0"
       style="stroke:none;stroke-opacity:1;fill:#ffffff;fill-opacity:1" /><path
       d="m 27.512,93.265 c 0.071,-0.107 0.133,-0.222 0.201,-0.331 -0.068,0.109 -0.13,0.223 -0.201,0.331 z"
       id="path14"
       inkscape:connector-curvature="0"
       style="stroke:none;stroke-opacity:1;fill:#ffffff;fill-opacity:1" /><path
       d="m 80.954,78.137 v 0 h -8 H 38 V 85 c 0,5.743 -2.077,10.979 -5.533,15 H 85.145 C 93.349,100 100,93.314 100,85.065 V 78.136 H 80.954 Z"
       id="path16"
       inkscape:connector-curvature="0"
       style="stroke:none;stroke-opacity:1;fill:#ffffff;fill-opacity:1" /><path
       d="m 24.734,96.4 c 0.022,-0.019 0.043,-0.04 0.065,-0.059 -0.022,0.019 -0.043,0.04 -0.065,0.059 z"
       id="path18"
       inkscape:connector-curvature="0"
       style="stroke:none;stroke-opacity:1;fill:#ffffff;fill-opacity:1" /><path
       d="m 26.682,94.398 c 0.058,-0.072 0.109,-0.149 0.166,-0.221 -0.057,0.072 -0.108,0.149 -0.166,0.221 z"
       id="path20"
       inkscape:connector-curvature="0"
       style="stroke:none;stroke-opacity:1;fill:#ffffff;fill-opacity:1" /><path
       d="m 25.872,95.314 c -0.04,0.043 -0.078,0.088 -0.119,0.131 0.042,-0.042 0.079,-0.088 0.119,-0.131 z"
       id="path22"
       inkscape:connector-curvature="0"
       style="stroke:none;stroke-opacity:1;fill:#ffffff;fill-opacity:1" /></g><path
     d="M 0,6.2916668e-7 V 4.4839466 H 5.3333333e-5 C 1.0666667e-4,4.4913606 0.00112,4.4985606 0.00138667,4.5059206 0.00106667,4.5151466 0,4.5241066 0,4.5333336 c 0,0.441813 0.35818667,0.8 0.8,0.8 0.009227,0 0.0181333,-0.0011 0.0273067,-0.0014 v 0 C 1.2563733,5.3174406 1.6,4.9659206 1.6,4.5333336 c 0,-0.227467 0,-0.792693 0,-0.792693 H 3.89088 V 6.2916668e-7 Z M 2.9754667,3.2792006 H 0.91541333 V 2.8314136 H 2.9754667 Z M 1.4075733,2.5284806 H 0.91541333 v -0.49216 l 1.56789337,-1.56783997 0.49216,0.49216 z"
     id="path26"
     inkscape:connector-curvature="0"
     style="stroke-width:0.05333333;stroke:none;stroke-opacity:1;fill:#ffffff;fill-opacity:1" /></svg>