<?xml version="1.0" encoding="UTF-8" standalone="no"?>
<!-- Generator: Adobe Illustrator 19.0.0, SVG Export Plug-In . SVG Version: 6.00 Build 0)  -->

<svg
   xmlns:dc="http://purl.org/dc/elements/1.1/"
   xmlns:cc="http://creativecommons.org/ns#"
   xmlns:rdf="http://www.w3.org/1999/02/22-rdf-syntax-ns#"
   xmlns:svg="http://www.w3.org/2000/svg"
   xmlns="http://www.w3.org/2000/svg"
   xmlns:sodipodi="http://sodipodi.sourceforge.net/DTD/sodipodi-0.dtd"
   xmlns:inkscape="http://www.inkscape.org/namespaces/inkscape"
   version="1.1"
   id="Capa_1"
   x="0px"
   y="0px"
   viewBox="0 0 16 16"
   xml:space="preserve"
   sodipodi:docname="font.svg"
   inkscape:version="0.92.4 (unknown)"
   width="16"
   height="16"><metadata
   id="metadata39"><rdf:RDF><cc:Work
       rdf:about=""><dc:format>image/svg+xml</dc:format><dc:type
         rdf:resource="http://purl.org/dc/dcmitype/StillImage" /><dc:title></dc:title></cc:Work></rdf:RDF></metadata><defs
   id="defs37" /><sodipodi:namedview
   pagecolor="#ffffff"
   bordercolor="#666666"
   borderopacity="1"
   objecttolerance="10"
   gridtolerance="10"
   guidetolerance="10"
   inkscape:pageopacity="0"
   inkscape:pageshadow="2"
   inkscape:window-width="1920"
   inkscape:window-height="1026"
   id="namedview35"
   showgrid="false"
   inkscape:zoom="4.6732673"
   inkscape:cx="-0.87889018"
   inkscape:cy="-41.594916"
   inkscape:window-x="0"
   inkscape:window-y="24"
   inkscape:window-maximized="1"
   inkscape:current-layer="Capa_1"
   inkscape:pagecheckerboard="true" />
<path
   d="m 11.914996,7.50986 c 1.526885,-0.64364 2.388027,-1.85045 2.388027,-3.3863 0,-1.3672 -0.579204,-2.47176 -1.674976,-3.19429 C 11.71918,0.32998 10.451912,0 9.05954,0 H 1 V 2.69307 H 2.4159417 V 13.30693 H 1 V 16 H 8.5715403 C 9.805826,16 11.56934,15.82218 12.961377,14.97505 14.3141,14.15184 15,12.90289 15,11.26273 15,9.37362 13.835097,7.98123 11.914996,7.50986 Z M 8.1765755,6.33663 H 5.7475691 V 2.69307 h 2.1735538 c 2.1623101,0 3.0443581,0.50218 3.0443581,1.73339 0,1.57877 -1.516556,1.91017 -2.7889055,1.91017 z M 5.7475691,9.10891 h 2.5685186 c 2.3768673,0 3.3463703,0.58899 3.3463703,2.03271 0,1.43684 -1.164986,2.16531 -3.4625606,2.16531 H 5.7475691 Z"
   id="path2"
   inkscape:connector-curvature="0"
   style="fill:#ffffff;fill-opacity:1;stroke-width:0.08122365" />
<g
   id="g4"
   transform="translate(0,-186)">
</g>
<g
   id="g6"
   transform="translate(0,-186)">
</g>
<g
   id="g8"
   transform="translate(0,-186)">
</g>
<g
   id="g10"
   transform="translate(0,-186)">
</g>
<g
   id="g12"
   transform="translate(0,-186)">
</g>
<g
   id="g14"
   transform="translate(0,-186)">
</g>
<g
   id="g16"
   transform="translate(0,-186)">
</g>
<g
   id="g18"
   transform="translate(0,-186)">
</g>
<g
   id="g20"
   transform="translate(0,-186)">
</g>
<g
   id="g22"
   transform="translate(0,-186)">
</g>
<g
   id="g24"
   transform="translate(0,-186)">
</g>
<g
   id="g26"
   transform="translate(0,-186)">
</g>
<g
   id="g28"
   transform="translate(0,-186)">
</g>
<g
   id="g30"
   transform="translate(0,-186)">
</g>
<g
   id="g32"
   transform="translate(0,-186)">
</g>
</svg>