<?xml version="1.0" encoding="UTF-8" standalone="no"?>
<svg
   xmlns:dc="http://purl.org/dc/elements/1.1/"
   xmlns:cc="http://creativecommons.org/ns#"
   xmlns:rdf="http://www.w3.org/1999/02/22-rdf-syntax-ns#"
   xmlns:svg="http://www.w3.org/2000/svg"
   xmlns="http://www.w3.org/2000/svg"
   xmlns:sodipodi="http://sodipodi.sourceforge.net/DTD/sodipodi-0.dtd"
   xmlns:inkscape="http://www.inkscape.org/namespaces/inkscape"
   height="16"
   viewBox="0 -44 12.00048 12.00048"
   width="16"
   version="1.1"
   id="svg8"
   sodipodi:docname="image_view.svg"
   inkscape:version="0.92.4 (unknown)">
  <metadata
     id="metadata14">
    <rdf:RDF>
      <cc:Work
         rdf:about="">
        <dc:format>image/svg+xml</dc:format>
        <dc:type
           rdf:resource="http://purl.org/dc/dcmitype/StillImage" />
        <dc:title />
      </cc:Work>
    </rdf:RDF>
  </metadata>
  <defs
     id="defs12" />
  <sodipodi:namedview
     pagecolor="#ffffff"
     bordercolor="#666666"
     borderopacity="1"
     objecttolerance="10"
     gridtolerance="10"
     guidetolerance="10"
     inkscape:pageopacity="0"
     inkscape:pageshadow="2"
     inkscape:window-width="1920"
     inkscape:window-height="1026"
     id="namedview10"
     showgrid="false"
     inkscape:pagecheckerboard="true"
     units="px"
     inkscape:zoom="8.34386"
     inkscape:cx="17.0219"
     inkscape:cy="7.3703718"
     inkscape:window-x="0"
     inkscape:window-y="24"
     inkscape:window-maximized="1"
     inkscape:current-layer="svg8" />
  <path
     style="fill:#f9f6f6;fill-opacity:1;stroke-width:0.04488667"
     d="M 1 1 L 1 15 L 15 15 L 15 1 L 1 1 z M 2 2 L 14 2 L 14 10 L 11 7 L 8 11 L 5 9 L 2 12 L 2 2 z M 5.8554688 3.5664062 A 1.8100212 1.8576534 0 0 0 4.0449219 5.4238281 A 1.8100212 1.8576534 0 0 0 5.8554688 7.28125 A 1.8100212 1.8576534 0 0 0 7.6640625 5.4238281 A 1.8100212 1.8576534 0 0 0 5.8554688 3.5664062 z "
     transform="matrix(0.75003,0,0,0.75003,0,-44)"
     id="path2" />
</svg>
