<?xml version="1.0" encoding="UTF-8" standalone="no"?>
<!-- Created with Inkscape (http://www.inkscape.org/) -->

<svg
   xmlns:dc="http://purl.org/dc/elements/1.1/"
   xmlns:cc="http://creativecommons.org/ns#"
   xmlns:rdf="http://www.w3.org/1999/02/22-rdf-syntax-ns#"
   xmlns:svg="http://www.w3.org/2000/svg"
   xmlns="http://www.w3.org/2000/svg"
   xmlns:sodipodi="http://sodipodi.sourceforge.net/DTD/sodipodi-0.dtd"
   xmlns:inkscape="http://www.inkscape.org/namespaces/inkscape"
   width="16"
   height="16"
   viewBox="0 0 4.2333332 4.2333335"
   version="1.1"
   id="svg8"
   inkscape:version="0.92.4 (unknown)"
   sodipodi:docname="skeleton.svg">
  <defs
     id="defs2" />
  <sodipodi:namedview
     id="base"
     pagecolor="#ffffff"
     bordercolor="#666666"
     borderopacity="1.0"
     inkscape:pageopacity="0.0"
     inkscape:pageshadow="2"
     inkscape:zoom="15.839192"
     inkscape:cx="2.7538153"
     inkscape:cy="0.46904123"
     inkscape:document-units="mm"
     inkscape:current-layer="layer2"
     showgrid="false"
     units="px"
     inkscape:pagecheckerboard="true"
     inkscape:window-width="1920"
     inkscape:window-height="1026"
     inkscape:window-x="0"
     inkscape:window-y="24"
     inkscape:window-maximized="1" />
  <metadata
     id="metadata5">
    <rdf:RDF>
      <cc:Work
         rdf:about="">
        <dc:format>image/svg+xml</dc:format>
        <dc:type
           rdf:resource="http://purl.org/dc/dcmitype/StillImage" />
        <dc:title></dc:title>
      </cc:Work>
    </rdf:RDF>
  </metadata>
  <g
     inkscape:label="Layer 1"
     inkscape:groupmode="layer"
     id="layer1"
     transform="translate(0,-292.76665)" />
  <g
     inkscape:groupmode="layer"
     id="layer2"
     inkscape:label="Layer 2"
     transform="translate(0,-292.76665)">
    <path
       style="fill:#ffffff;fill-opacity:1;stroke:none;stroke-width:0.04192081;stroke-miterlimit:4;stroke-dasharray:none;stroke-opacity:1"
       d="M 2.116658,292.76674 A 2.1166644,2.1265658 0 0 0 0,294.8933 a 2.1166644,2.1265658 0 0 0 0.407035,1.2501 0.28588415,0.28049743 0 0 1 0.122877,-0.0276 0.28588415,0.28049743 0 0 1 0.28589,0.28051 0.28588415,0.28049743 0 0 1 -0.03922,0.14125 2.1166644,2.1265658 0 0 0 0.267186,0.18448 0.28588415,0.28049743 0 0 1 0.273997,-0.20097 0.28588415,0.28049743 0 0 1 0.285891,0.28049 0.28588415,0.28049743 0 0 1 -0.03971,0.14202 2.1166644,2.1265658 0 0 0 0.258315,0.0523 0.28588415,0.28049741 0 0 1 -0.0025,-0.0345 0.28588415,0.28049741 0 0 1 0.28589,-0.28051 0.28588415,0.28049741 0 0 1 0.285874,0.28051 0.28588415,0.28049741 0 0 1 -0.0031,0.0386 2.1166644,2.1265658 0 0 0 0.260929,-0.0529 0.28588415,0.28049743 0 0 1 -0.04179,-0.14551 0.28588415,0.28049743 0 0 1 0.285874,-0.28049 0.28588415,0.28049743 0 0 1 0.277264,0.21328 2.1166644,2.1265658 0 0 0 0.269277,-0.18779 0.28588415,0.28049743 0 0 1 -0.04456,-0.15025 0.28588415,0.28049743 0 0 1 0.285874,-0.28051 0.28588415,0.28049743 0 0 1 0.13833,0.0351 2.1166644,2.1265658 0 0 0 0.4137,-1.25766 2.1166644,2.1265658 0 0 0 -2.116674,-2.12656 z m -1.158132,2.20707 a 0.51676938,0.51852452 0 0 1 0.516762,0.51852 0.51676938,0.51852452 0 0 1 -0.516762,0.51853 0.51676938,0.51852452 0 0 1 -0.516778,-0.51853 0.51676938,0.51852452 0 0 1 0.516778,-0.51852 z m 2.304567,0 a 0.51676938,0.51852452 0 0 1 0.516762,0.51852 0.51676938,0.51852452 0 0 1 -0.516762,0.51853 0.51676938,0.51852452 0 0 1 -0.516778,-0.51853 0.51676938,0.51852452 0 0 1 0.516778,-0.51852 z m -1.15444,0.73578 c 0.04539,-4e-4 0.09099,0.028 0.124788,0.0863 l 0.183156,0.31593 c 0.08854,0.15273 0.08059,0.28076 -0.128088,0.2822 l -0.372796,0.003 c -0.189981,10e-4 -0.196327,-0.14302 -0.114006,-0.28479 l 0.183449,-0.31593 c 0.03294,-0.0567 0.07811,-0.0859 0.123497,-0.0863 z"
       id="path827"
       inkscape:connector-curvature="0" />
  </g>
</svg>
