<?xml version="1.0" encoding="UTF-8" standalone="no"?>
<!-- Generator: Adobe Illustrator 19.0.0, SVG Export Plug-In . SVG Version: 6.00 Build 0)  -->

<svg
   xmlns:dc="http://purl.org/dc/elements/1.1/"
   xmlns:cc="http://creativecommons.org/ns#"
   xmlns:rdf="http://www.w3.org/1999/02/22-rdf-syntax-ns#"
   xmlns:svg="http://www.w3.org/2000/svg"
   xmlns="http://www.w3.org/2000/svg"
   xmlns:sodipodi="http://sodipodi.sourceforge.net/DTD/sodipodi-0.dtd"
   xmlns:inkscape="http://www.inkscape.org/namespaces/inkscape"
   version="1.1"
   id="Layer_1"
   x="0px"
   y="0px"
   viewBox="0 0 16.000002 16"
   xml:space="preserve"
   sodipodi:docname="skeleton.svg"
   width="16.000002"
   height="16"
   inkscape:version="0.92.4 (unknown)"><metadata
   id="metadata43"><rdf:RDF><cc:Work
       rdf:about=""><dc:format>image/svg+xml</dc:format><dc:type
         rdf:resource="http://purl.org/dc/dcmitype/StillImage" /></cc:Work></rdf:RDF></metadata><defs
   id="defs41" /><sodipodi:namedview
   pagecolor="#ffffff"
   bordercolor="#666666"
   borderopacity="1"
   objecttolerance="10"
   gridtolerance="10"
   guidetolerance="10"
   inkscape:pageopacity="0"
   inkscape:pageshadow="2"
   inkscape:window-width="1920"
   inkscape:window-height="1026"
   id="namedview39"
   showgrid="false"
   inkscape:zoom="15.402375"
   inkscape:cx="20.242144"
   inkscape:cy="19.125524"
   inkscape:window-x="0"
   inkscape:window-y="24"
   inkscape:window-maximized="1"
   inkscape:current-layer="g6" />
<g
   id="g6"
   transform="matrix(0.03272612,0,0,0.03263213,-0.0230416,-1.1422308e-5)">
	<g
   id="g4"
   style="fill:#ffffff;fill-opacity:1">
		<path
   d="m 415.441,74.138 c 4.1,-29.6 -48.4,-104.9 -125.8,-60.4 -35.3,23.9 -47.7,66.7 -27,111.3 l -138.4,138.4 c -54.5,-24.5 -111.8,3.8 -122.2,55.1 -4.4,21.6 -2,84 72.2,97.8 2,24 16.1,68.6 81.1,73.9 22.6,1.9 111.7,-31.3 71.8,-124.8 l 138.3,-138.4 c 53,26.7 94.7,-4.1 110.3,-27 43.8,-74.3 -27.2,-126.3 -60.3,-125.9 z m 29.2,105 c -17.5,25.5 -43.2,19.8 -54.1,13.5 -16.1,-9.3 -38.5,-6.2 -52,7.3 l -138.4,138.4 c -13.5,13.5 -16.7,34.3 -7.3,52 10.4,18.7 4.2,41.6 -13.5,54.1 -13.6,8.3 -54.2,14 -63.5,-31.2 -2.1,-19.8 -16.6,-34.3 -36.4,-36.4 -12.5,-1 -44.9,-14.6 -35.9,-53.9 5.3,-23.3 34.2,-35.5 57.8,-23.1 16.6,8.3 38.5,6.2 52,-7.3 l 139.4,-138.3 c 13.5,-13.5 16.7,-34.3 7.3,-52 -10.4,-18.7 -4.2,-41.6 13.5,-54.1 13.5,-8.4 53.8,-13.9 63.5,31.1 2.1,19.8 16.6,34.3 36.4,36.4 44.1,8 40.6,50 31.2,63.5 z"
   id="path2"
   inkscape:connector-curvature="0"
   style="fill:#ffffff;fill-opacity:1" />
	</g>
</g>
<g
   id="g8"
   transform="translate(-0.7040738,-474.31464)">
</g>
<g
   id="g10"
   transform="translate(-0.7040738,-474.31464)">
</g>
<g
   id="g12"
   transform="translate(-0.7040738,-474.31464)">
</g>
<g
   id="g14"
   transform="translate(-0.7040738,-474.31464)">
</g>
<g
   id="g16"
   transform="translate(-0.7040738,-474.31464)">
</g>
<g
   id="g18"
   transform="translate(-0.7040738,-474.31464)">
</g>
<g
   id="g20"
   transform="translate(-0.7040738,-474.31464)">
</g>
<g
   id="g22"
   transform="translate(-0.7040738,-474.31464)">
</g>
<g
   id="g24"
   transform="translate(-0.7040738,-474.31464)">
</g>
<g
   id="g26"
   transform="translate(-0.7040738,-474.31464)">
</g>
<g
   id="g28"
   transform="translate(-0.7040738,-474.31464)">
</g>
<g
   id="g30"
   transform="translate(-0.7040738,-474.31464)">
</g>
<g
   id="g32"
   transform="translate(-0.7040738,-474.31464)">
</g>
<g
   id="g34"
   transform="translate(-0.7040738,-474.31464)">
</g>
<g
   id="g36"
   transform="translate(-0.7040738,-474.31464)">
</g>
</svg>