<?xml version="1.0" encoding="UTF-8" standalone="no"?>
<!-- Generator: Adobe Illustrator 19.0.0, SVG Export Plug-In . SVG Version: 6.00 Build 0)  -->

<svg
   xmlns:dc="http://purl.org/dc/elements/1.1/"
   xmlns:cc="http://creativecommons.org/ns#"
   xmlns:rdf="http://www.w3.org/1999/02/22-rdf-syntax-ns#"
   xmlns:svg="http://www.w3.org/2000/svg"
   xmlns="http://www.w3.org/2000/svg"
   xmlns:sodipodi="http://sodipodi.sourceforge.net/DTD/sodipodi-0.dtd"
   xmlns:inkscape="http://www.inkscape.org/namespaces/inkscape"
   version="1.1"
   id="Capa_1"
   x="0px"
   y="0px"
   viewBox="0 0 16 16"
   xml:space="preserve"
   sodipodi:docname="border.svg"
   width="16"
   height="16"
   inkscape:version="0.92.5 (0.92.5+68)"><metadata
   id="metadata67"><rdf:RDF><cc:Work
       rdf:about=""><dc:format>image/svg+xml</dc:format><dc:type
         rdf:resource="http://purl.org/dc/dcmitype/StillImage" /><dc:title></dc:title></cc:Work></rdf:RDF></metadata><defs
   id="defs65" /><sodipodi:namedview
   pagecolor="#ffffff"
   bordercolor="#666666"
   borderopacity="1"
   objecttolerance="10"
   gridtolerance="10"
   guidetolerance="10"
   inkscape:pageopacity="0"
   inkscape:pageshadow="2"
   inkscape:window-width="1920"
   inkscape:window-height="1026"
   id="namedview63"
   showgrid="false"
   showborder="true"
   inkscape:pagecheckerboard="true"
   inkscape:zoom="31.800555"
   inkscape:cx="9.6199703"
   inkscape:cy="8.1174311"
   inkscape:window-x="0"
   inkscape:window-y="24"
   inkscape:window-maximized="1"
   inkscape:current-layer="Capa_1" />
<g
   id="g6"
   style="fill:#ffffff;fill-opacity:1"
   transform="matrix(0.02734375,0,0,0.02734375,1,1)">
	<g
   id="g4"
   style="fill:#ffffff;fill-opacity:1">
		<path
   d="M 512,0 H 0 V 512 H 512 Z M 475.42857,475.42857 H 33.285714 L 36.571429,36.571429 H 475.42857 Z"
   id="path2"
   style="fill:#ffffff;fill-opacity:1"
   inkscape:connector-curvature="0"
   sodipodi:nodetypes="cccccccccc" />
	</g>
</g>
<g
   id="g12"
   transform="matrix(0.03036315,0,0,0.02793029,0.77783247,-0.38545)"
   style="fill:#ffffff;fill-opacity:1">
	<g
   id="g10"
   style="fill:#ffffff;fill-opacity:1">
		<path
   d="M 143.55843,121.21081 H 73.636614 l -0.900568,71.60687 h 35.093804 v -35.80321 h 34.82801 z"
   id="path8"
   inkscape:connector-curvature="0"
   sodipodi:nodetypes="ccccccc"
   style="fill:#ffffff;fill-opacity:1" />
	</g>
</g>
<g
   id="g18"
   transform="matrix(0.02690406,0,0,0.02793029,1.0212004,2.08515)"
   style="fill:#ffffff;fill-opacity:1">
	<g
   id="g16"
   style="fill:#ffffff;fill-opacity:1">
		<path
   d="M 142.80673,354.98557 H 108.79077 V 319.18215 H 73.042052 V 390.789 h 69.764678 z"
   id="path14"
   inkscape:connector-curvature="0"
   sodipodi:nodetypes="ccccccc"
   style="fill:#ffffff;fill-opacity:1" />
	</g>
</g>
<g
   id="g24"
   transform="matrix(0.02690444,0,0,0.02793029,1.1490929,2.08515)"
   style="fill:#ffffff;fill-opacity:1">
	<g
   id="g22"
   style="fill:#ffffff;fill-opacity:1">
		<path
   d="m 403.31268,319.18215 v 35.80342 H 365.63615 V 390.789 h 74.33717 v -71.60685 z"
   id="path20"
   inkscape:connector-curvature="0"
   sodipodi:nodetypes="ccccccc"
   style="fill:#ffffff;fill-opacity:1" />
	</g>
</g>
<g
   id="g30"
   transform="matrix(0.02690406,0,0,0.02792988,1.1492329,0.98178)"
   style="fill:#ffffff;fill-opacity:1">
	<g
   id="g28"
   style="fill:#ffffff;fill-opacity:1">
		<path
   d="m 440.99066,72.260137 h -74.33822 l -1.01636,35.803713 h 37.67748 v 35.80417 h 36.66074 z"
   id="path26"
   inkscape:connector-curvature="0"
   sodipodi:nodetypes="ccccccc"
   style="fill:#ffffff;fill-opacity:1" />
	</g>
</g>
<g
   id="g32"
   transform="translate(0,-496)">
</g>
<g
   id="g34"
   transform="translate(0,-496)">
</g>
<g
   id="g36"
   transform="translate(0,-496)">
</g>
<g
   id="g38"
   transform="translate(0,-496)">
</g>
<g
   id="g40"
   transform="translate(0,-496)">
</g>
<g
   id="g42"
   transform="translate(0,-496)">
</g>
<g
   id="g44"
   transform="translate(0,-496)">
</g>
<g
   id="g46"
   transform="translate(0,-496)">
</g>
<g
   id="g48"
   transform="translate(0,-496)">
</g>
<g
   id="g50"
   transform="translate(0,-496)">
</g>
<g
   id="g52"
   transform="translate(0,-496)">
</g>
<g
   id="g54"
   transform="translate(0,-496)">
</g>
<g
   id="g56"
   transform="translate(0,-496)">
</g>
<g
   id="g58"
   transform="translate(0,-496)">
</g>
<g
   id="g60"
   transform="translate(0,-496)">
</g>
<g
   aria-label="9"
   style="font-style:normal;font-variant:normal;font-weight:normal;font-stretch:normal;font-size:8px;line-height:1.25;font-family:'Arial Black';-inkscape-font-specification:'Arial Black, ';letter-spacing:0px;word-spacing:0px;fill:#ffffff;fill-opacity:1;stroke:none"
   id="text4591"><path
     d="M 5.6283112,9.598945 7.3046359,9.397098 q 0.066225,0.336412 0.2235098,0.474934 0.1572848,0.138523 0.3849339,0.138523 0.4056292,0 0.6332782,-0.391821 0.1655628,-0.288918 0.2483443,-1.2229554 -0.3021522,0.2968338 -0.620861,0.4353562 -0.3187085,0.1385225 -0.736755,0.1385225 -0.8153972,0 -1.3783112,-0.5540897 Q 5.5,7.8614778 5.5,7.0145121 5.5,6.4366756 5.7855961,5.9617415 6.0711921,5.4868075 6.5720199,5.2453826 7.0728478,5 7.8302981,5 8.7408943,5 9.2913909,5.3007916 9.841888,5.5976254 10.168874,6.2506597 10.5,6.8997363 10.5,7.9683379 10.5,9.539578 9.808775,10.271768 9.1175498,11 7.8923843,11 7.1680464,11 6.75,10.841689 6.3319537,10.67942 6.0546357,10.370713 5.7773179,10.062005 5.6283112,9.598945 Z M 8.7326161,7.0105542 q 0,-0.4709762 -0.2483445,-0.7361478 Q 8.2359274,6.0052771 7.879967,6.0052771 q -0.335265,0 -0.5587749,0.2414249 -0.2193707,0.2414247 -0.2193707,0.7242744 0,0.4868075 0.2276488,0.7440634 0.2317882,0.257256 0.5753313,0.257256 0.3559603,0 0.5918874,-0.2493405 Q 8.7326161,7.473615 8.7326161,7.0105542 Z"
     style="font-style:normal;font-variant:normal;font-weight:normal;font-stretch:normal;font-size:8px;font-family:'Arial Black';-inkscape-font-specification:'Arial Black, ';fill:#ffffff;fill-opacity:1;stroke-width:1.03613794"
     id="path4593"
     inkscape:connector-curvature="0" /></g></svg>