<?xml version="1.0" encoding="UTF-8" standalone="no"?>
<svg
   xmlns:dc="http://purl.org/dc/elements/1.1/"
   xmlns:cc="http://creativecommons.org/ns#"
   xmlns:rdf="http://www.w3.org/1999/02/22-rdf-syntax-ns#"
   xmlns:svg="http://www.w3.org/2000/svg"
   xmlns="http://www.w3.org/2000/svg"
   xmlns:sodipodi="http://sodipodi.sourceforge.net/DTD/sodipodi-0.dtd"
   xmlns:inkscape="http://www.inkscape.org/namespaces/inkscape"
   height="16"
   width="16"
   version="1.1"
   id="svg22"
   sodipodi:docname="slider.svg"
   inkscape:version="0.92.4 (unknown)">
  <metadata
     id="metadata28">
    <rdf:RDF>
      <cc:Work
         rdf:about="">
        <dc:format>image/svg+xml</dc:format>
        <dc:type
           rdf:resource="http://purl.org/dc/dcmitype/StillImage" />
        <dc:title></dc:title>
      </cc:Work>
    </rdf:RDF>
  </metadata>
  <defs
     id="defs26" />
  <sodipodi:namedview
     pagecolor="#ffffff"
     bordercolor="#666666"
     borderopacity="1"
     objecttolerance="10"
     gridtolerance="10"
     guidetolerance="10"
     inkscape:pageopacity="0"
     inkscape:pageshadow="2"
     inkscape:window-width="1920"
     inkscape:window-height="1026"
     id="namedview24"
     showgrid="false"
     inkscape:pagecheckerboard="true"
     inkscape:zoom="6.3054108"
     inkscape:cx="40.825834"
     inkscape:cy="-4.4289862"
     inkscape:window-x="0"
     inkscape:window-y="24"
     inkscape:window-maximized="1"
     inkscape:current-layer="g20" />
  <g
     transform="translate(-19,-287.29999)"
     id="g20">
    <path
       d="m 30.423077,293.29999 c -0.54487,0 -1.013716,0.20026 -1.406024,0.60026 -0.370515,0.37778 -0.555515,0.84419 -0.555515,1.39975 0,0.55554 0.185,1.03358 0.555515,1.43358 0.392308,0.37778 0.861154,0.56641 1.406024,0.56641 0.54487,0 1.002307,-0.18863 1.372822,-0.56641 0.392308,-0.4 0.588717,-0.87804 0.588717,-1.43358 0,-0.55556 -0.196409,-1.02197 -0.588717,-1.39975 -0.370515,-0.4 -0.827952,-0.60026 -1.372822,-0.60026 z m 0,1 c 0.261539,0 0.48962,0.10075 0.685774,0.30078 0.196154,0.2 0.315326,0.43724 0.294995,0.69923 -0.02032,0.26197 -0.104188,0.52796 -0.294995,0.70051 -0.190811,0.17255 -0.412339,0.28985 -0.685774,0.29948 -0.273437,0.01 -0.490895,-0.0994 -0.687049,-0.29948 -0.196154,-0.2 -0.29372,-0.43385 -0.29372,-0.70051 0,-0.26668 0.09757,-0.49923 0.29372,-0.69923 0.196154,-0.19999 0.42551,-0.30078 0.687049,-0.30078 z m -11.423077,0 v 2 h 9 v -2 z m 14,0 v 2 h 2 v -2 z"
       id="path2"
       style="fill:#fafafc;fill-opacity:1;stroke-width:0.66022515"
       inkscape:connector-curvature="0"
       sodipodi:nodetypes="ssscssscssszzzsssscccccccccc" />
    <path
       d="m 55.1,303.2 v 0.1 H 55 v -0.1 h 0.1"
       id="path16"
       inkscape:connector-curvature="0"
       style="fill:#000000;fill-opacity:0.41960784;fill-rule:evenodd;stroke:none" />
  </g>
</svg>
