<?xml version="1.0" encoding="UTF-8" standalone="no"?>
<svg
   xmlns:dc="http://purl.org/dc/elements/1.1/"
   xmlns:cc="http://creativecommons.org/ns#"
   xmlns:rdf="http://www.w3.org/1999/02/22-rdf-syntax-ns#"
   xmlns:svg="http://www.w3.org/2000/svg"
   xmlns="http://www.w3.org/2000/svg"
   xmlns:sodipodi="http://sodipodi.sourceforge.net/DTD/sodipodi-0.dtd"
   xmlns:inkscape="http://www.inkscape.org/namespaces/inkscape"
   height="32"
   width="32"
   version="1.1"
   id="svg22"
   sodipodi:docname="slider.svg"
   inkscape:version="0.92.4 (unknown)">
  <metadata
     id="metadata28">
    <rdf:RDF>
      <cc:Work
         rdf:about="">
        <dc:format>image/svg+xml</dc:format>
        <dc:type
           rdf:resource="http://purl.org/dc/dcmitype/StillImage" />
        <dc:title />
      </cc:Work>
    </rdf:RDF>
  </metadata>
  <defs
     id="defs26" />
  <sodipodi:namedview
     pagecolor="#ffffff"
     bordercolor="#666666"
     borderopacity="1"
     objecttolerance="10"
     gridtolerance="10"
     guidetolerance="10"
     inkscape:pageopacity="0"
     inkscape:pageshadow="2"
     inkscape:window-width="1920"
     inkscape:window-height="1026"
     id="namedview24"
     showgrid="false"
     inkscape:pagecheckerboard="true"
     inkscape:zoom="25.221643"
     inkscape:cx="28.862418"
     inkscape:cy="18.646125"
     inkscape:window-x="0"
     inkscape:window-y="24"
     inkscape:window-maximized="1"
     inkscape:current-layer="g20" />
  <g
     transform="translate(-19,-271.29999)"
     id="g20">
    <path
       d="m 40,284.29999 c -0.83333,0 -1.55039,0.30039 -2.15039,0.90039 C 37.28294,285.76705 37,286.46666 37,287.29999 c 0,0.83333 0.28294,1.55039 0.84961,2.15039 0.6,0.56667 1.31706,0.84961 2.15039,0.84961 0.83333,0 1.53294,-0.28294 2.09961,-0.84961 0.6,-0.6 0.90039,-1.31706 0.90039,-2.15039 0,-0.83333 -0.30039,-1.53294 -0.90039,-2.09961 -0.56667,-0.6 -1.26628,-0.90039 -2.09961,-0.90039 z m 0,1.5 c 0.4,0 0.74883,0.15117 1.04883,0.45117 0.3,0.3 0.482264,0.65586 0.45117,1.04883 -0.03109,0.39297 -0.159343,0.79195 -0.45117,1.05078 -0.291827,0.25883 -0.630634,0.43477 -1.04883,0.44922 -0.418196,0.0145 -0.75078,-0.14922 -1.05078,-0.44922 -0.3,-0.3 -0.44922,-0.65078 -0.44922,-1.05078 0,-0.4 0.14922,-0.74883 0.44922,-1.04883 0.3,-0.3 0.65078,-0.45117 1.05078,-0.45117 z m -19,0.5 v 2 h 15 v -2 z m 23,0 v 2 h 3 v -2 z"
       id="path2"
       style="fill:#fafafc;fill-opacity:1"
       inkscape:connector-curvature="0"
       sodipodi:nodetypes="ssscssscssszzzsssscccccccccc" />
    <path
       d="m 55.1,303.2 v 0.1 H 55 v -0.1 h 0.1"
       id="path16"
       inkscape:connector-curvature="0"
       style="fill:#000000;fill-opacity:0.41960784;fill-rule:evenodd;stroke:none" />
  </g>
</svg>
