<?xml version="1.0" encoding="UTF-8" standalone="no"?>
<svg
   xmlns:dc="http://purl.org/dc/elements/1.1/"
   xmlns:cc="http://creativecommons.org/ns#"
   xmlns:rdf="http://www.w3.org/1999/02/22-rdf-syntax-ns#"
   xmlns:svg="http://www.w3.org/2000/svg"
   xmlns="http://www.w3.org/2000/svg"
   xmlns:sodipodi="http://sodipodi.sourceforge.net/DTD/sodipodi-0.dtd"
   xmlns:inkscape="http://www.inkscape.org/namespaces/inkscape"
   height="16"
   viewBox="0 -44 12.00048 12.00048"
   width="16"
   version="1.1"
   id="svg8"
   sodipodi:docname="sprite.svg"
   inkscape:version="0.92.4 (unknown)">
  <metadata
     id="metadata14">
    <rdf:RDF>
      <cc:Work
         rdf:about="">
        <dc:format>image/svg+xml</dc:format>
        <dc:type
           rdf:resource="http://purl.org/dc/dcmitype/StillImage" />
        <dc:title />
      </cc:Work>
    </rdf:RDF>
  </metadata>
  <defs
     id="defs12" />
  <sodipodi:namedview
     pagecolor="#ffffff"
     bordercolor="#666666"
     borderopacity="1"
     objecttolerance="10"
     gridtolerance="10"
     guidetolerance="10"
     inkscape:pageopacity="0"
     inkscape:pageshadow="2"
     inkscape:window-width="1920"
     inkscape:window-height="1026"
     id="namedview10"
     showgrid="false"
     inkscape:pagecheckerboard="true"
     units="px"
     inkscape:zoom="33.37544"
     inkscape:cx="8.7363171"
     inkscape:cy="7.3729739"
     inkscape:window-x="0"
     inkscape:window-y="24"
     inkscape:window-maximized="1"
     inkscape:current-layer="svg8" />
  <path
     style="fill:#f9f6f6;fill-opacity:1;stroke-width:0.03366635"
     d="m 0.75003,-43.24997 v 10.50042 h 10.50042 v -10.50042 z m 0.6562762,0.656276 h 9.1878678 v 9.187868 H 1.4063062 Z m 0.6434584,0.656276 v 7.078042 h 0.00257 0.019227 0.00385 7.8624941 v -7.078042 z m 0.6690942,0.656277 h 6.5627625 v 3.937657 l -1.4264191,-1.311595 -1.8238467,1.767067 -1.3936858,-0.777441 -1.9188109,1.910107 z m 1.8434954,0.79032 c -0.5319407,4.89e-4 -0.9628433,0.431965 -0.962624,0.963906 -2.193e-4,0.531941 0.4306833,0.963417 0.962624,0.963906 0.5324411,2.19e-4 0.964125,-0.431465 0.9639057,-0.963906 2.193e-4,-0.532441 -0.4314646,-0.964125 -0.9639057,-0.963906 z"
     id="path2"
     inkscape:connector-curvature="0"
     sodipodi:nodetypes="ccccccccccccccccccccccccccccccc" />
</svg>
