<?xml version="1.0" encoding="UTF-8" standalone="no"?>
<!-- Generator: Adobe Illustrator 18.1.1, SVG Export Plug-In . SVG Version: 6.00 Build 0)  -->

<svg
   xmlns:dc="http://purl.org/dc/elements/1.1/"
   xmlns:cc="http://creativecommons.org/ns#"
   xmlns:rdf="http://www.w3.org/1999/02/22-rdf-syntax-ns#"
   xmlns:svg="http://www.w3.org/2000/svg"
   xmlns="http://www.w3.org/2000/svg"
   xmlns:sodipodi="http://sodipodi.sourceforge.net/DTD/sodipodi-0.dtd"
   xmlns:inkscape="http://www.inkscape.org/namespaces/inkscape"
   version="1.1"
   id="Capa_1"
   x="0px"
   y="0px"
   viewBox="0 0 15.999999 15.999999"
   xml:space="preserve"
   sodipodi:docname="texture_element.svg"
   width="16"
   height="16"
   inkscape:version="0.92.4 (unknown)"><metadata
   id="metadata41"><rdf:RDF><cc:Work
       rdf:about=""><dc:format>image/svg+xml</dc:format><dc:type
         rdf:resource="http://purl.org/dc/dcmitype/StillImage" /><dc:title /></cc:Work></rdf:RDF></metadata><defs
   id="defs39" /><sodipodi:namedview
   pagecolor="#ffffff"
   bordercolor="#666666"
   borderopacity="1"
   objecttolerance="10"
   gridtolerance="10"
   guidetolerance="10"
   inkscape:pageopacity="0"
   inkscape:pageshadow="2"
   inkscape:window-width="1920"
   inkscape:window-height="1026"
   id="namedview37"
   showgrid="false"
   inkscape:pagecheckerboard="true"
   inkscape:zoom="25.280352"
   inkscape:cx="6.4373267"
   inkscape:cy="7.8028044"
   inkscape:window-x="0"
   inkscape:window-y="24"
   inkscape:window-maximized="1"
   inkscape:current-layer="Capa_1" />
<g
   id="g4"
   transform="matrix(0.05356025,0,0,0.05713653,0,-0.53422619)"
   style="fill:#fffbfb;fill-opacity:1">
	<path
   style="fill:#fffbfb;fill-opacity:1"
   d="M 298.729,9.35 H 0 V 289.381 H 298.729 Z M 186.70563,61.855807 c 18.02,0 37.34112,16.984876 37.34112,35.003876 0,18.018997 -19.32212,35.003877 -37.34112,35.003877 -18.025,0 -37.34113,-16.98488 -37.34113,-35.003877 0,-18.019 19.31613,-35.003876 37.34113,-35.003876 z M 18.670563,254.37712 112.02338,131.86356 l 74.68225,87.50969 37.34112,-35.00388 56.01169,70.00775 z"
   id="path2"
   inkscape:connector-curvature="0"
   sodipodi:nodetypes="cccccssssscccccc" />
</g>
<g
   id="g6"
   transform="translate(0,-282.73001)">
</g>
<g
   id="g8"
   transform="translate(0,-282.73001)">
</g>
<g
   id="g10"
   transform="translate(0,-282.73001)">
</g>
<g
   id="g12"
   transform="translate(0,-282.73001)">
</g>
<g
   id="g14"
   transform="translate(0,-282.73001)">
</g>
<g
   id="g16"
   transform="translate(0,-282.73001)">
</g>
<g
   id="g18"
   transform="translate(0,-282.73001)">
</g>
<g
   id="g20"
   transform="translate(0,-282.73001)">
</g>
<g
   id="g22"
   transform="translate(0,-282.73001)">
</g>
<g
   id="g24"
   transform="translate(0,-282.73001)">
</g>
<g
   id="g26"
   transform="translate(0,-282.73001)">
</g>
<g
   id="g28"
   transform="translate(0,-282.73001)">
</g>
<g
   id="g30"
   transform="translate(0,-282.73001)">
</g>
<g
   id="g32"
   transform="translate(0,-282.73001)">
</g>
<g
   id="g34"
   transform="translate(0,-282.73001)">
</g>
</svg>