<?xml version="1.0" encoding="UTF-8" standalone="no"?>
<!-- Generator: Adobe Illustrator 18.1.1, SVG Export Plug-In . SVG Version: 6.00 Build 0)  -->

<svg
   xmlns:dc="http://purl.org/dc/elements/1.1/"
   xmlns:cc="http://creativecommons.org/ns#"
   xmlns:rdf="http://www.w3.org/1999/02/22-rdf-syntax-ns#"
   xmlns:svg="http://www.w3.org/2000/svg"
   xmlns="http://www.w3.org/2000/svg"
   xmlns:sodipodi="http://sodipodi.sourceforge.net/DTD/sodipodi-0.dtd"
   xmlns:inkscape="http://www.inkscape.org/namespaces/inkscape"
   version="1.1"
   id="Capa_1"
   x="0px"
   y="0px"
   viewBox="0 0 15.999999 15.999999"
   xml:space="preserve"
   sodipodi:docname="insert-picture-icon.svg"
   width="16"
   height="16"
   inkscape:version="0.92.4 (unknown)"><metadata
   id="metadata41"><rdf:RDF><cc:Work
       rdf:about=""><dc:format>image/svg+xml</dc:format><dc:type
         rdf:resource="http://purl.org/dc/dcmitype/StillImage" /><dc:title></dc:title></cc:Work></rdf:RDF></metadata><defs
   id="defs39" /><sodipodi:namedview
   pagecolor="#ffffff"
   bordercolor="#666666"
   borderopacity="1"
   objecttolerance="10"
   gridtolerance="10"
   guidetolerance="10"
   inkscape:pageopacity="0"
   inkscape:pageshadow="2"
   inkscape:window-width="1920"
   inkscape:window-height="1026"
   id="namedview37"
   showgrid="false"
   inkscape:pagecheckerboard="true"
   inkscape:zoom="35.751817"
   inkscape:cx="11.527335"
   inkscape:cy="4.3709863"
   inkscape:window-x="0"
   inkscape:window-y="24"
   inkscape:window-maximized="1"
   inkscape:current-layer="Capa_1" />
<g
   id="g4"
   transform="matrix(0.05356025,0,0,0.05713653,0,-0.53422619)"
   style="fill:#fffbfb;fill-opacity:1">
	<path
   style="fill:#fffbfb;fill-opacity:1"
   d="M 264.959,9.35 H 33.787 C 15.153,9.35 0,24.498 0,43.154 v 212.461 c 0,18.634 15.153,33.766 33.787,33.766 h 231.171 c 18.634,0 33.771,-15.132 33.771,-33.766 V 43.154 C 298.73,24.498 283.593,9.35 264.959,9.35 Z m -71.785,50.273 c 18.02,0 32.634,14.615 32.634,32.634 0,18.019 -14.615,32.634 -32.634,32.634 -18.025,0 -32.634,-14.615 -32.634,-32.634 0,-18.019 14.609,-32.634 32.634,-32.634 z m 61.189,198.526 H 149.362 49.039 c -9.013,0 -13.027,-6.521 -8.964,-14.566 l 56.006,-110.93 c 4.058,-8.044 11.792,-8.762 17.269,-1.605 l 56.316,73.596 c 5.477,7.158 15.05,7.767 21.386,1.354 l 13.777,-13.951 c 6.331,-6.413 15.659,-5.619 20.826,1.762 l 35.675,50.959 c 5.157,7.392 2.046,13.381 -6.967,13.381 z"
   id="path2"
   inkscape:connector-curvature="0" />
</g>
<g
   id="g6"
   transform="translate(0,-282.73001)">
</g>
<g
   id="g8"
   transform="translate(0,-282.73001)">
</g>
<g
   id="g10"
   transform="translate(0,-282.73001)">
</g>
<g
   id="g12"
   transform="translate(0,-282.73001)">
</g>
<g
   id="g14"
   transform="translate(0,-282.73001)">
</g>
<g
   id="g16"
   transform="translate(0,-282.73001)">
</g>
<g
   id="g18"
   transform="translate(0,-282.73001)">
</g>
<g
   id="g20"
   transform="translate(0,-282.73001)">
</g>
<g
   id="g22"
   transform="translate(0,-282.73001)">
</g>
<g
   id="g24"
   transform="translate(0,-282.73001)">
</g>
<g
   id="g26"
   transform="translate(0,-282.73001)">
</g>
<g
   id="g28"
   transform="translate(0,-282.73001)">
</g>
<g
   id="g30"
   transform="translate(0,-282.73001)">
</g>
<g
   id="g32"
   transform="translate(0,-282.73001)">
</g>
<g
   id="g34"
   transform="translate(0,-282.73001)">
</g>
</svg>