<?xml version="1.0" encoding="UTF-8" standalone="no"?>
<!-- Generator: Adobe Illustrator 19.0.0, SVG Export Plug-In . SVG Version: 6.00 Build 0)  -->

<svg
   xmlns:dc="http://purl.org/dc/elements/1.1/"
   xmlns:cc="http://creativecommons.org/ns#"
   xmlns:rdf="http://www.w3.org/1999/02/22-rdf-syntax-ns#"
   xmlns:svg="http://www.w3.org/2000/svg"
   xmlns="http://www.w3.org/2000/svg"
   xmlns:sodipodi="http://sodipodi.sourceforge.net/DTD/sodipodi-0.dtd"
   xmlns:inkscape="http://www.inkscape.org/namespaces/inkscape"
   version="1.1"
   id="Capa_1"
   x="0px"
   y="0px"
   viewBox="0 0 16 16"
   xml:space="preserve"
   sodipodi:docname="layers.svg"
   inkscape:version="0.92.4 (unknown)"
   width="16"
   height="16"><metadata
   id="metadata67"><rdf:RDF><cc:Work
       rdf:about=""><dc:format>image/svg+xml</dc:format><dc:type
         rdf:resource="http://purl.org/dc/dcmitype/StillImage" /><dc:title></dc:title></cc:Work></rdf:RDF></metadata><defs
   id="defs65" /><sodipodi:namedview
   pagecolor="#ffffff"
   bordercolor="#666666"
   borderopacity="1"
   objecttolerance="10"
   gridtolerance="10"
   guidetolerance="10"
   inkscape:pageopacity="0"
   inkscape:pageshadow="2"
   inkscape:window-width="1920"
   inkscape:window-height="1026"
   id="namedview63"
   showgrid="false"
   inkscape:zoom="4.2945791"
   inkscape:cx="2.3285169"
   inkscape:cy="27.4765"
   inkscape:window-x="0"
   inkscape:window-y="24"
   inkscape:window-maximized="1"
   inkscape:current-layer="Capa_1" />
<g
   id="g30"
   transform="matrix(0.2911526,0,0,0.30018199,0,-0.24795011)"
   style="fill:#ffffff;fill-opacity:1">
	<circle
   cx="45.021"
   cy="25.976"
   r="1"
   id="circle2"
   style="fill:#ffffff;fill-opacity:1" />
	<circle
   cx="9.0209999"
   cy="25.976"
   r="1"
   id="circle4"
   style="fill:#ffffff;fill-opacity:1" />
	<circle
   cx="12.021"
   cy="28.976"
   r="1"
   id="circle6"
   style="fill:#ffffff;fill-opacity:1" />
	<circle
   cx="18.021"
   cy="28.976"
   r="1"
   id="circle8"
   style="fill:#ffffff;fill-opacity:1" />
	<circle
   cx="15.021"
   cy="31.976"
   r="1"
   id="circle10"
   style="fill:#ffffff;fill-opacity:1" />
	<circle
   cx="21.021"
   cy="31.976"
   r="1"
   id="circle12"
   style="fill:#ffffff;fill-opacity:1" />
	<circle
   cx="24.021"
   cy="34.976002"
   r="1"
   id="circle14"
   style="fill:#ffffff;fill-opacity:1" />
	<circle
   cx="30.021"
   cy="34.976002"
   r="1"
   id="circle16"
   style="fill:#ffffff;fill-opacity:1" />
	<circle
   cx="33.021"
   cy="31.976"
   r="1"
   id="circle18"
   style="fill:#ffffff;fill-opacity:1" />
	<circle
   cx="27.021"
   cy="37.976002"
   r="1"
   id="circle20"
   style="fill:#ffffff;fill-opacity:1" />
	<circle
   cx="36.021"
   cy="28.976"
   r="1"
   id="circle22"
   style="fill:#ffffff;fill-opacity:1" />
	<circle
   cx="42.021"
   cy="28.976"
   r="1"
   id="circle24"
   style="fill:#ffffff;fill-opacity:1" />
	<circle
   cx="39.021"
   cy="31.976"
   r="1"
   id="circle26"
   style="fill:#ffffff;fill-opacity:1" />
	<path
   d="M 45.559,32.796 54.953,27.429 45.297,21.946 54.953,16.429 27.477,0.826 0,16.429 9.656,21.946 0,27.429 9.656,32.946 0,38.429 27.477,54.127 54.954,38.429 45.298,32.946 45.369,32.905 c 0.07,-0.026 0.128,-0.068 0.19,-0.109 z M 27.477,3.125 50.913,16.434 43.276,20.798 v 0 L 27.478,29.824 4.041,16.434 Z M 11.129,23.409 c 0.162,0.333 0.497,0.567 0.892,0.567 0.27,0 0.512,-0.109 0.692,-0.283 l 2.262,1.292 c -0.53,0.025 -0.954,0.455 -0.954,0.991 0,0.552 0.448,1 1,1 0.552,0 1,-0.448 1,-1 0,-0.173 -0.055,-0.327 -0.132,-0.469 l 10.33,5.902 c -0.116,0.163 -0.198,0.352 -0.198,0.567 0,0.552 0.448,1 1,1 0.552,0 1,-0.448 1,-1 0,-0.051 -0.021,-0.094 -0.029,-0.143 L 38.044,26.09 c 0.059,0.496 0.465,0.885 0.977,0.885 0.552,0 1,-0.448 1,-1 0,-0.325 -0.165,-0.601 -0.406,-0.783 l 2.202,-1.258 c 0.068,0.015 0.132,0.041 0.204,0.041 0.444,0 0.807,-0.294 0.938,-0.694 l 0.32,-0.183 7.634,4.335 -1.983,1.133 c -0.157,-0.347 -0.503,-0.591 -0.908,-0.591 -0.552,0 -1,0.448 -1,1 0,0.216 0.083,0.405 0.199,0.568 l -3.945,2.254 v 0 l -6.388,3.65 c 0.078,-0.142 0.134,-0.298 0.134,-0.472 0,-0.552 -0.448,-1 -1,-1 -0.552,0 -1,0.448 -1,1 0,0.537 0.426,0.967 0.957,0.991 l -2.263,1.293 c -0.18,-0.174 -0.423,-0.284 -0.694,-0.284 -0.552,0 -1,0.448 -1,1 0,0.08 0.028,0.151 0.046,0.226 l -4.59,2.622 -5.517,-3.152 c -0.13,-0.401 -0.494,-0.696 -0.939,-0.696 -0.073,0 -0.138,0.027 -0.206,0.042 L 18.615,35.76 c 0.241,-0.183 0.407,-0.458 0.407,-0.784 0,-0.552 -0.448,-1 -1,-1 -0.512,0 -0.919,0.391 -0.977,0.887 L 6.991,29.12 c 0.007,-0.049 0.029,-0.093 0.029,-0.144 0,-0.552 -0.448,-1 -1,-1 -0.239,0 -0.449,0.095 -0.621,0.235 L 4.04,27.435 Z m 39.783,15.025 -23.436,13.39 -23.435,-13.39 7.633,-4.335 15.803,9.028 15.802,-9.028 z"
   id="path28"
   inkscape:connector-curvature="0"
   style="fill:#ffffff;fill-opacity:1" />
</g>
<g
   id="g32"
   transform="translate(0,-38.952999)">
</g>
<g
   id="g34"
   transform="translate(0,-38.952999)">
</g>
<g
   id="g36"
   transform="translate(0,-38.952999)">
</g>
<g
   id="g38"
   transform="translate(0,-38.952999)">
</g>
<g
   id="g40"
   transform="translate(0,-38.952999)">
</g>
<g
   id="g42"
   transform="translate(0,-38.952999)">
</g>
<g
   id="g44"
   transform="translate(0,-38.952999)">
</g>
<g
   id="g46"
   transform="translate(0,-38.952999)">
</g>
<g
   id="g48"
   transform="translate(0,-38.952999)">
</g>
<g
   id="g50"
   transform="translate(0,-38.952999)">
</g>
<g
   id="g52"
   transform="translate(0,-38.952999)">
</g>
<g
   id="g54"
   transform="translate(0,-38.952999)">
</g>
<g
   id="g56"
   transform="translate(0,-38.952999)">
</g>
<g
   id="g58"
   transform="translate(0,-38.952999)">
</g>
<g
   id="g60"
   transform="translate(0,-38.952999)">
</g>
</svg>