<?xml version="1.0" encoding="UTF-8" standalone="no"?>
<!-- Generator: Adobe Illustrator 19.0.0, SVG Export Plug-In . SVG Version: 6.00 Build 0)  -->

<svg
   xmlns:dc="http://purl.org/dc/elements/1.1/"
   xmlns:cc="http://creativecommons.org/ns#"
   xmlns:rdf="http://www.w3.org/1999/02/22-rdf-syntax-ns#"
   xmlns:svg="http://www.w3.org/2000/svg"
   xmlns="http://www.w3.org/2000/svg"
   xmlns:sodipodi="http://sodipodi.sourceforge.net/DTD/sodipodi-0.dtd"
   xmlns:inkscape="http://www.inkscape.org/namespaces/inkscape"
   version="1.1"
   id="Layer_1"
   x="0px"
   y="0px"
   viewBox="0 0 16 16"
   xml:space="preserve"
   sodipodi:docname="tiles.svg"
   width="16"
   height="16"
   inkscape:version="0.92.4 (unknown)"><metadata
   id="metadata43"><rdf:RDF><cc:Work
       rdf:about=""><dc:format>image/svg+xml</dc:format><dc:type
         rdf:resource="http://purl.org/dc/dcmitype/StillImage" /><dc:title></dc:title></cc:Work></rdf:RDF></metadata><defs
   id="defs41" /><sodipodi:namedview
   pagecolor="#ffffff"
   bordercolor="#666666"
   borderopacity="1"
   objecttolerance="10"
   gridtolerance="10"
   guidetolerance="10"
   inkscape:pageopacity="0"
   inkscape:pageshadow="2"
   inkscape:window-width="1920"
   inkscape:window-height="1026"
   id="namedview39"
   showgrid="false"
   inkscape:zoom="3.6875"
   inkscape:cx="4.6679874"
   inkscape:cy="84.457691"
   inkscape:window-x="0"
   inkscape:window-y="24"
   inkscape:window-maximized="1"
   inkscape:current-layer="Layer_1" />
<g
   id="g6"
   style="fill:#ffffff;fill-opacity:1"
   transform="matrix(0.03124999,0,0,0.03032732,0,0.73622529)">
	<g
   id="g4"
   style="fill:#ffffff;fill-opacity:1">
		<path
   d="M 506.837,268.181 380.565,192.405 h -0.021 l -19.691,-11.819 18.219,-11.605 c 3.072,-1.963 4.928,-5.355 4.928,-9.003 0,-3.648 -1.856,-7.04 -4.928,-9.003 L 261.739,76.309 c -3.499,-2.219 -7.957,-2.219 -11.456,0 L 132.95,150.976 c -3.072,1.984 -4.928,5.376 -4.928,9.024 0,3.648 1.856,7.04 4.928,9.003 l 18.219,11.605 -19.691,11.819 h -0.021 L 5.184,268.203 c -3.2,1.92 -5.163,5.376 -5.184,9.109 0,3.733 1.92,7.189 5.12,9.152 l 245.333,149.333 c 1.707,1.024 3.627,1.557 5.547,1.557 1.92,0 3.84,-0.512 5.547,-1.557 L 506.88,286.464 c 3.2,-1.941 5.141,-5.419 5.12,-9.152 0.021,-3.755 -1.963,-7.211 -5.163,-9.131 z m -370.901,72.918 -104.64,-63.701 105.493,-63.296 99.349,63.232 z m 120.107,-76.416 -98.773,-62.848 14.059,-8.427 78.955,50.261 c 1.749,1.109 3.733,1.664 5.739,1.664 2.005,0 3.989,-0.555 5.739,-1.664 l 78.997,-50.261 14.059,8.427 z m 120.042,76.416 -100.203,-63.765 99.349,-63.232 105.493,63.296 z"
   id="path2"
   style="fill:#ffffff;fill-opacity:1"
   inkscape:connector-curvature="0" />
	</g>
</g>
<g
   id="g8"
   transform="translate(0,-496)">
</g>
<g
   id="g10"
   transform="translate(0,-496)">
</g>
<g
   id="g12"
   transform="translate(0,-496)">
</g>
<g
   id="g14"
   transform="translate(0,-496)">
</g>
<g
   id="g16"
   transform="translate(0,-496)">
</g>
<g
   id="g18"
   transform="translate(0,-496)">
</g>
<g
   id="g20"
   transform="translate(0,-496)">
</g>
<g
   id="g22"
   transform="translate(0,-496)">
</g>
<g
   id="g24"
   transform="translate(0,-496)">
</g>
<g
   id="g26"
   transform="translate(0,-496)">
</g>
<g
   id="g28"
   transform="translate(0,-496)">
</g>
<g
   id="g30"
   transform="translate(0,-496)">
</g>
<g
   id="g32"
   transform="translate(0,-496)">
</g>
<g
   id="g34"
   transform="translate(0,-496)">
</g>
<g
   id="g36"
   transform="translate(0,-496)">
</g>
</svg>