<?xml version="1.0" encoding="UTF-8" standalone="no"?>
<svg
   xmlns:dc="http://purl.org/dc/elements/1.1/"
   xmlns:cc="http://creativecommons.org/ns#"
   xmlns:rdf="http://www.w3.org/1999/02/22-rdf-syntax-ns#"
   xmlns:svg="http://www.w3.org/2000/svg"
   xmlns="http://www.w3.org/2000/svg"
   xmlns:sodipodi="http://sodipodi.sourceforge.net/DTD/sodipodi-0.dtd"
   xmlns:inkscape="http://www.inkscape.org/namespaces/inkscape"
   height="32"
   width="32"
   version="1.1"
   id="svg10"
   sodipodi:docname="1.svg"
   inkscape:version="0.92.4 (unknown)">
  <metadata
     id="metadata16">
    <rdf:RDF>
      <cc:Work
         rdf:about="">
        <dc:format>image/svg+xml</dc:format>
        <dc:type
           rdf:resource="http://purl.org/dc/dcmitype/StillImage" />
        <dc:title></dc:title>
      </cc:Work>
    </rdf:RDF>
  </metadata>
  <defs
     id="defs14" />
  <sodipodi:namedview
     pagecolor="#ffffff"
     bordercolor="#666666"
     borderopacity="1"
     objecttolerance="10"
     gridtolerance="10"
     guidetolerance="10"
     inkscape:pageopacity="0"
     inkscape:pageshadow="2"
     inkscape:window-width="1920"
     inkscape:window-height="1026"
     id="namedview12"
     showgrid="false"
     inkscape:zoom="9.0769231"
     inkscape:cx="13"
     inkscape:cy="13"
     inkscape:window-x="0"
     inkscape:window-y="24"
     inkscape:window-maximized="1"
     inkscape:current-layer="svg10"
     inkscape:pagecheckerboard="true" />
  <g
     transform="translate(-259.5,-183.95)"
     id="g8">
    <path
       d="m 267.5,189.95 h -2 v 2 h 2 v -2 m 3,0 h -2 v 2 h 2 v -2 m -6,-1 h 22 v 4 h -22 v -4 m 16,7 h -15 v 13 h 15 v -13 m -4,-6 v 2 h 9 v -2 h -9 m 5,6 v 1 h 4 v -1 h -4 m -10,-6 v 2 h 2 v -2 h -2 m 15,4 v 17 h -22 v -17 h 22 m -1,15 v -1 h -4 v 1 h 4 m 0,-3 v -1 h -4 v 1 h 4 m 0,-3 v -1 h -4 v 1 h 4 m 0,-3 v -1 h -4 v 1 h 4"
       id="path2"
       inkscape:connector-curvature="0"
       style="fill:#ffffff;fill-rule:evenodd;stroke:none" />
    <path
       d="m 279.5,196.95 v 11 h -13 v -11 h 13 m -10,4 v -2 h -2 v 2 h 2 m 7.3,2.85 -1.3,1.15 -3.2,-4 -4.8,4.65 v 1.35 h 11 l -1.7,-3.15"
       id="path4"
       inkscape:connector-curvature="0"
       style="fill:#fefefe;fill-opacity:0.99607843;fill-rule:evenodd;stroke:none" />
    <path
       d="m 288.5,186.95 v 26 h -26 v -26 h 26 m -1,1 h -24 v 24 h 24 v -24"
       id="path6"
       inkscape:connector-curvature="0"
       style="fill:#9595a0;fill-rule:evenodd;stroke:none" />
  </g>
</svg>
