<?xml version="1.0" encoding="UTF-8" standalone="no"?>
<svg
   xmlns:dc="http://purl.org/dc/elements/1.1/"
   xmlns:cc="http://creativecommons.org/ns#"
   xmlns:rdf="http://www.w3.org/1999/02/22-rdf-syntax-ns#"
   xmlns:svg="http://www.w3.org/2000/svg"
   xmlns="http://www.w3.org/2000/svg"
   xmlns:sodipodi="http://sodipodi.sourceforge.net/DTD/sodipodi-0.dtd"
   xmlns:inkscape="http://www.inkscape.org/namespaces/inkscape"
   height="32"
   width="32"
   version="1.1"
   id="svg22"
   sodipodi:docname="widget.svg"
   inkscape:version="0.92.4 (unknown)">
  <metadata
     id="metadata28">
    <rdf:RDF>
      <cc:Work
         rdf:about="">
        <dc:format>image/svg+xml</dc:format>
        <dc:type
           rdf:resource="http://purl.org/dc/dcmitype/StillImage" />
        <dc:title></dc:title>
      </cc:Work>
    </rdf:RDF>
  </metadata>
  <defs
     id="defs26" />
  <sodipodi:namedview
     pagecolor="#ffffff"
     bordercolor="#666666"
     borderopacity="1"
     objecttolerance="10"
     gridtolerance="10"
     guidetolerance="10"
     inkscape:pageopacity="0"
     inkscape:pageshadow="2"
     inkscape:window-width="1920"
     inkscape:window-height="1026"
     id="namedview24"
     showgrid="false"
     inkscape:pagecheckerboard="true"
     inkscape:zoom="8.9171975"
     inkscape:cx="29.045477"
     inkscape:cy="20.080449"
     inkscape:window-x="0"
     inkscape:window-y="24"
     inkscape:window-maximized="1"
     inkscape:current-layer="g20" />
  <g
     transform="translate(-19,-271.29999)"
     id="g20">
    <path
       d="m 55.1,303.2 v 0.1 H 55 v -0.1 h 0.1"
       id="path16"
       inkscape:connector-curvature="0"
       style="fill:#000000;fill-opacity:0.41960784;fill-rule:evenodd;stroke:none" />
    <g
       id="g823"
       transform="translate(-30.85,35.39999)">
      <path
         sodipodi:nodetypes="cccccccccc"
         style="fill:#9595a0;fill-rule:evenodd;stroke:none"
         inkscape:connector-curvature="0"
         id="path12"
         d="m 77.85,239.9 h -24 v 24 h 24 v -24 m -25,-1 h 26 v 26 h -26 v -26" />
      <path
         sodipodi:nodetypes="cccccccccccccccccccccccccccccccssscssc"
         style="fill:#ffffff;fill-rule:evenodd;stroke:none;stroke-width:1.10352111"
         inkscape:connector-curvature="0"
         id="path18"
         d="m 74.134773,254.27379 0.981818,0.33489 1.472727,-0.61396 1.309091,1.73024 -0.981818,1.50697 0.381818,1.00466 1.309091,0.61395 -0.436364,2.34418 -1.745454,0.0558 -0.545455,0.66977 0.272728,1.78604 -2.127273,0.94884 -0.927273,-1.22791 h -0.981818 l -1.036364,1.22791 -2.127272,-0.94884 0.272727,-1.78604 -0.545455,-0.66977 -1.636363,-0.0558 -0.436364,-2.34418 1.418182,-0.72558 0.163636,-0.94884 -0.981818,-1.28372 1.418182,-1.89768 1.745454,0.61396 0.709091,-0.3907 0.327273,-1.56279 h 2.290909 l 0.436364,1.6186 m -1.581818,2.28838 c -0.581818,0 -1.072727,0.20464 -1.472728,0.61395 -0.4,0.44651 -0.6,0.96745 -0.6,1.56279 0,0.59535 0.2,1.09767 0.6,1.50698 0.400001,0.4093 0.89091,0.61395 1.472728,0.61395 0.581817,0 1.072726,-0.20465 1.472727,-0.61395 0.436363,-0.40931 0.654545,-0.91163 0.654545,-1.50698 0,-0.59534 -0.218182,-1.11628 -0.654545,-1.56279 -0.400001,-0.40931 -0.89091,-0.61395 -1.472727,-0.61395" />
    </g>
  </g>
</svg>
