<?xml version="1.0" encoding="UTF-8" standalone="no"?>
<svg
   xmlns:dc="http://purl.org/dc/elements/1.1/"
   xmlns:cc="http://creativecommons.org/ns#"
   xmlns:rdf="http://www.w3.org/1999/02/22-rdf-syntax-ns#"
   xmlns:svg="http://www.w3.org/2000/svg"
   xmlns="http://www.w3.org/2000/svg"
   xmlns:sodipodi="http://sodipodi.sourceforge.net/DTD/sodipodi-0.dtd"
   xmlns:inkscape="http://www.inkscape.org/namespaces/inkscape"
   height="32"
   width="32"
   version="1.1"
   id="svg22"
   sodipodi:docname="button (9th copy).svg"
   inkscape:version="0.92.4 (unknown)">
  <metadata
     id="metadata28">
    <rdf:RDF>
      <cc:Work
         rdf:about="">
        <dc:format>image/svg+xml</dc:format>
        <dc:type
           rdf:resource="http://purl.org/dc/dcmitype/StillImage" />
        <dc:title />
      </cc:Work>
    </rdf:RDF>
  </metadata>
  <defs
     id="defs26" />
  <sodipodi:namedview
     pagecolor="#ffffff"
     bordercolor="#666666"
     borderopacity="1"
     objecttolerance="10"
     gridtolerance="10"
     guidetolerance="10"
     inkscape:pageopacity="0"
     inkscape:pageshadow="2"
     inkscape:window-width="1920"
     inkscape:window-height="1026"
     id="namedview24"
     showgrid="false"
     inkscape:pagecheckerboard="true"
     inkscape:zoom="6.3054108"
     inkscape:cx="43.003328"
     inkscape:cy="58.76627"
     inkscape:window-x="0"
     inkscape:window-y="24"
     inkscape:window-maximized="1"
     inkscape:current-layer="g20" />
  <g
     transform="translate(-19,-271.29999)"
     id="g20">
    <path
       d="m 35.52,277.29999 v 7 h -1.04 v -7 H 32.4 l 2.6,-3 2.6,3 h -2.08 m 2.08,10 v -1 h 7.28 v -2 l 3.12,2.5 -3.12,2.5 v -2 H 37.6 m -1.04,1 v 1 h -3.12 v -1 h 3.12 m 1.04,9 -2.496,3 -2.704,-3 h 2.08 v -7 h 1.04 v 7 h 2.08 m -12.48,-8 -3.12,-2.45 3.12,-2.55 v 2 h 7.28 v 1 h -7.28 v 2"
       id="path12"
       inkscape:connector-curvature="0"
       style="fill:#9595a0;fill-rule:evenodd;stroke:none;stroke-width:1.01980388"
       sodipodi:nodetypes="ccccccccccccccccccccccccccccccccccccc" />
    <path
       d="m 33.44,285.2996 v 3 h 3.12 v -3 z"
       id="path2"
       style="fill:#fafafc;fill-opacity:1;stroke-width:1.01980388"
       inkscape:connector-curvature="0"
       sodipodi:nodetypes="ccccc" />
    <path
       d="m 55.1,303.2 v 0.1 H 55 v -0.1 h 0.1"
       id="path16"
       inkscape:connector-curvature="0"
       style="fill:#000000;fill-opacity:0.41960784;fill-rule:evenodd;stroke:none" />
  </g>
</svg>
