<?xml version="1.0" encoding="UTF-8" standalone="no"?>
<svg
   xmlns:dc="http://purl.org/dc/elements/1.1/"
   xmlns:cc="http://creativecommons.org/ns#"
   xmlns:rdf="http://www.w3.org/1999/02/22-rdf-syntax-ns#"
   xmlns:svg="http://www.w3.org/2000/svg"
   xmlns="http://www.w3.org/2000/svg"
   xmlns:sodipodi="http://sodipodi.sourceforge.net/DTD/sodipodi-0.dtd"
   xmlns:inkscape="http://www.inkscape.org/namespaces/inkscape"
   height="32"
   width="32"
   version="1.1"
   id="svg22"
   sodipodi:docname="list_view.svg"
   inkscape:version="0.92.4 (unknown)">
  <metadata
     id="metadata28">
    <rdf:RDF>
      <cc:Work
         rdf:about="">
        <dc:format>image/svg+xml</dc:format>
        <dc:type
           rdf:resource="http://purl.org/dc/dcmitype/StillImage" />
        <dc:title />
      </cc:Work>
    </rdf:RDF>
  </metadata>
  <defs
     id="defs26" />
  <sodipodi:namedview
     pagecolor="#ffffff"
     bordercolor="#666666"
     borderopacity="1"
     objecttolerance="10"
     gridtolerance="10"
     guidetolerance="10"
     inkscape:pageopacity="0"
     inkscape:pageshadow="2"
     inkscape:window-width="1920"
     inkscape:window-height="1026"
     id="namedview24"
     showgrid="false"
     inkscape:pagecheckerboard="true"
     inkscape:zoom="1.5763527"
     inkscape:cx="215.64999"
     inkscape:cy="100.60757"
     inkscape:window-x="0"
     inkscape:window-y="24"
     inkscape:window-maximized="1"
     inkscape:current-layer="g20" />
  <g
     transform="translate(-19,-271.29999)"
     id="g20">
    <path
       d="m 27,280.30038 h -2 v -2 h 2 v 2 m 2,-2 h 9 v 2 h -9 v -2 m 9,17 h -9 v -2 h 9 v 2 m 0,-5 h -9 v -2 h 9 v 2 m 0,-5 h -9 v -2 h 9 v 2 m -11,3 v 2 h -2 v -2 h 2 m 0,-3 h -2 v -2 h 2 v 2 m 0,8 v 2 h -2 v -2 h 2"
       id="path12"
       inkscape:connector-curvature="0"
       style="fill:#9595a0;fill-rule:evenodd;stroke:none"
       sodipodi:nodetypes="cccccccccccccccccccccccccccccccccccccccc" />
    <path
       d="m 22,274.29999 v 26 h 19 v -26 z m 20,0 v 26 h 6 v -26 z m -19,1 h 17 v 24 H 23 Z m 22.15039,1 1.84961,3 h -4 z m -2.15039,19 h 4 l -1.94922,3 z"
       id="path2"
       style="fill:#fafafc;fill-opacity:1"
       inkscape:connector-curvature="0"
       sodipodi:nodetypes="ccccccccccccccccccccccc" />
    <path
       d="m 55.1,303.2 v 0.1 H 55 v -0.1 h 0.1"
       id="path16"
       inkscape:connector-curvature="0"
       style="fill:#000000;fill-opacity:0.41960784;fill-rule:evenodd;stroke:none" />
  </g>
</svg>
