<?xml version="1.0" encoding="UTF-8" standalone="no"?>
<svg
   xmlns:dc="http://purl.org/dc/elements/1.1/"
   xmlns:cc="http://creativecommons.org/ns#"
   xmlns:rdf="http://www.w3.org/1999/02/22-rdf-syntax-ns#"
   xmlns:svg="http://www.w3.org/2000/svg"
   xmlns="http://www.w3.org/2000/svg"
   xmlns:sodipodi="http://sodipodi.sourceforge.net/DTD/sodipodi-0.dtd"
   xmlns:inkscape="http://www.inkscape.org/namespaces/inkscape"
   height="32"
   width="32"
   version="1.1"
   id="svg22"
   sodipodi:docname="particle.svg"
   inkscape:version="0.92.4 (unknown)">
  <metadata
     id="metadata28">
    <rdf:RDF>
      <cc:Work
         rdf:about="">
        <dc:format>image/svg+xml</dc:format>
        <dc:type
           rdf:resource="http://purl.org/dc/dcmitype/StillImage" />
        <dc:title></dc:title>
      </cc:Work>
    </rdf:RDF>
  </metadata>
  <defs
     id="defs26" />
  <sodipodi:namedview
     pagecolor="#ffffff"
     bordercolor="#666666"
     borderopacity="1"
     objecttolerance="10"
     gridtolerance="10"
     guidetolerance="10"
     inkscape:pageopacity="0"
     inkscape:pageshadow="2"
     inkscape:window-width="1920"
     inkscape:window-height="1026"
     id="namedview24"
     showgrid="false"
     inkscape:pagecheckerboard="true"
     inkscape:zoom="8.9171975"
     inkscape:cx="35.764939"
     inkscape:cy="13.617763"
     inkscape:window-x="0"
     inkscape:window-y="24"
     inkscape:window-maximized="1"
     inkscape:current-layer="g20" />
  <g
     transform="translate(-19,-271.29999)"
     id="g20">
    <path
       style="fill:#ffffff;fill-rule:evenodd;stroke:none;stroke-width:0.99902987"
       d="m 35.474559,274.29999 -1.85309,3.08778 -3.506597,0.79772 2.30316,2.73951 -0.250471,3.58587 3.306998,-1.34446 3.35592,1.34446 -0.25047,-3.58587 2.30512,-2.73951 -3.5066,-0.79772 z m -9.967964,5.32919 -1.203435,1.99237 -2.30316,0.54868 1.502826,1.79196 -0.150673,2.292 2.154442,-0.84636 2.203363,0.84636 -0.199594,-2.292 1.502826,-1.79196 -2.254239,-0.54868 z m 19.986814,0 -1.20148,1.99237 -2.30512,0.54868 1.50283,1.79196 -0.15068,2.292 c 0.73471,-0.26565 1.45313,-0.54751 2.15445,-0.84636 l 2.20336,0.84636 -0.1996,-2.292 1.50283,-1.79196 -2.25424,-0.54868 z m -10.51979,5.72806 v 14.94275 h 1.00188 v -14.94275 z m -10.018843,1.99236 v 9.96184 h 1.001885 v -9.96184 z m 20.037683,0 v 9.96184 h 1.00189 v -9.96184 z"
       id="path8"
       inkscape:connector-curvature="0" />
  </g>
</svg>
