<?xml version="1.0" encoding="UTF-8" standalone="no"?>
<svg
   xmlns:dc="http://purl.org/dc/elements/1.1/"
   xmlns:cc="http://creativecommons.org/ns#"
   xmlns:rdf="http://www.w3.org/1999/02/22-rdf-syntax-ns#"
   xmlns:svg="http://www.w3.org/2000/svg"
   xmlns="http://www.w3.org/2000/svg"
   xmlns:sodipodi="http://sodipodi.sourceforge.net/DTD/sodipodi-0.dtd"
   xmlns:inkscape="http://www.inkscape.org/namespaces/inkscape"
   height="32"
   width="32"
   version="1.1"
   id="svg6"
   sodipodi:docname="skeleton.svg"
   inkscape:version="0.92.4 (unknown)">
  <metadata
     id="metadata12">
    <rdf:RDF>
      <cc:Work
         rdf:about="">
        <dc:format>image/svg+xml</dc:format>
        <dc:type
           rdf:resource="http://purl.org/dc/dcmitype/StillImage" />
        <dc:title></dc:title>
      </cc:Work>
    </rdf:RDF>
  </metadata>
  <defs
     id="defs10" />
  <sodipodi:namedview
     pagecolor="#ffffff"
     bordercolor="#666666"
     borderopacity="1"
     objecttolerance="10"
     gridtolerance="10"
     guidetolerance="10"
     inkscape:pageopacity="0"
     inkscape:pageshadow="2"
     inkscape:window-width="1920"
     inkscape:window-height="1026"
     id="namedview8"
     showgrid="false"
     inkscape:pagecheckerboard="true"
     inkscape:zoom="9.8333333"
     inkscape:cx="1.7118644"
     inkscape:cy="12"
     inkscape:window-x="0"
     inkscape:window-y="24"
     inkscape:window-maximized="1"
     inkscape:current-layer="svg6" />
  <g
     transform="translate(-16.65,-343.75)"
     id="g4">
    <path
       d="m 37.8,350.5 q -1,0 -1.7,0.75 -0.75,0.7 -0.75,1.75 0,1 0.75,1.7 l -0.25,1.6 -1.15,-0.9 -6.65,6.3 0.1,0.35 q 0,1.8 -1.25,3.05 -1.25,1.2 -3,1.2 -1.8,0 -3.05,-1.2 -1.2,-1.25 -1.2,-3.05 0,-1.8 1.2,-3 1.25,-1.25 3.05,-1.25 l 0.8,0.05 8.95,-4.8 v -0.3 q 0,-1.7 1.15,-2.85 1.15,-1.15 2.8,-1.15 1.65,0 2.8,1.15 1.15,1.15 1.15,2.85 l -0.3,1.6 -1,-0.8 0.05,-0.55 q 0,-1.05 -0.75,-1.75 -0.7,-0.75 -1.75,-0.75 m 1.05,1.6 q 0.45,0.45 0.45,1.05 l -0.25,0.8 4.45,11.3 0.95,0.7 q 1.2,1.15 1.2,2.85 0,1.65 -1.2,2.8 -1.15,1.15 -2.8,1.15 -1.65,0 -2.8,-1.15 -1.15,-1.15 -1.15,-2.8 0,-1.35 0.75,-2.35 L 37.8,354.6 q -0.6,0 -1,-0.45 -0.45,-0.45 -0.45,-1 0,-0.6 0.45,-1.05 0.4,-0.45 1,-0.45 0.6,0 1.05,0.45 m 0.95,16.65 q 0,0.8 0.55,1.4 0.6,0.6 1.4,0.6 0.8,0 1.4,-0.6 0.6,-0.6 0.6,-1.4 0,-0.85 -0.6,-1.45 -0.6,-0.55 -1.4,-0.55 -0.8,0 -1.4,0.55 -0.55,0.6 -0.55,1.45 M 25.05,360.7 q -0.6,-0.55 -1.35,-0.55 -0.85,0 -1.45,0.55 -0.55,0.6 -0.55,1.45 0,0.8 0.55,1.4 0.6,0.6 1.45,0.6 0.75,0 1.35,-0.6 0.6,-0.6 0.6,-1.4 0,-0.85 -0.6,-1.45"
       id="path2"
       inkscape:connector-curvature="0"
       style="fill:#ffffff;fill-rule:evenodd;stroke:none" />
  </g>
</svg>
