<?xml version="1.0" encoding="UTF-8" standalone="no"?>
<svg
   xmlns:dc="http://purl.org/dc/elements/1.1/"
   xmlns:cc="http://creativecommons.org/ns#"
   xmlns:rdf="http://www.w3.org/1999/02/22-rdf-syntax-ns#"
   xmlns:svg="http://www.w3.org/2000/svg"
   xmlns="http://www.w3.org/2000/svg"
   xmlns:sodipodi="http://sodipodi.sourceforge.net/DTD/sodipodi-0.dtd"
   xmlns:inkscape="http://www.inkscape.org/namespaces/inkscape"
   height="32"
   width="32"
   version="1.1"
   id="svg22"
   sodipodi:docname="sprite.svg"
   inkscape:version="0.92.4 (unknown)">
  <metadata
     id="metadata28">
    <rdf:RDF>
      <cc:Work
         rdf:about="">
        <dc:format>image/svg+xml</dc:format>
        <dc:type
           rdf:resource="http://purl.org/dc/dcmitype/StillImage" />
        <dc:title></dc:title>
      </cc:Work>
    </rdf:RDF>
  </metadata>
  <defs
     id="defs26" />
  <sodipodi:namedview
     pagecolor="#ffffff"
     bordercolor="#666666"
     borderopacity="1"
     objecttolerance="10"
     gridtolerance="10"
     guidetolerance="10"
     inkscape:pageopacity="0"
     inkscape:pageshadow="2"
     inkscape:window-width="1920"
     inkscape:window-height="1026"
     id="namedview24"
     showgrid="false"
     inkscape:pagecheckerboard="true"
     inkscape:zoom="4.4585987"
     inkscape:cx="61.754919"
     inkscape:cy="45.898154"
     inkscape:window-x="0"
     inkscape:window-y="24"
     inkscape:window-maximized="1"
     inkscape:current-layer="g20" />
  <g
     transform="translate(-19,-271.29999)"
     id="g20">
    <path
       style="fill:#ffffff;fill-opacity:1;fill-rule:evenodd;stroke:none"
       d="m 21,276.29999 v 22 h 28 v -22 z m 1,1 h 26 v 20 H 22 Z m 4.19922,4.20117 c -0.53333,0 -0.99844,0.19961 -1.39844,0.59961 -0.4,0.4 -0.60156,0.86706 -0.60156,1.40039 0,0.53333 0.20156,0.99844 0.60156,1.39844 0.4,0.4 0.86511,0.60156 1.39844,0.60156 0.53333,0 1.00039,-0.20156 1.40039,-0.60156 0.4,-0.4 0.59961,-0.86511 0.59961,-1.39844 0,-0.53333 -0.19961,-1.00039 -0.59961,-1.40039 -0.4,-0.4 -0.86706,-0.59961 -1.40039,-0.59961 z m 7.40039,3.79883 -10.59961,8 v 3 h 24 l -4,-7 -3.25,3 z"
       id="path2"
       inkscape:connector-curvature="0" />
  </g>
</svg>
