<?xml version="1.0" encoding="UTF-8" standalone="no"?>
<svg
   xmlns:dc="http://purl.org/dc/elements/1.1/"
   xmlns:cc="http://creativecommons.org/ns#"
   xmlns:rdf="http://www.w3.org/1999/02/22-rdf-syntax-ns#"
   xmlns:svg="http://www.w3.org/2000/svg"
   xmlns="http://www.w3.org/2000/svg"
   xmlns:sodipodi="http://sodipodi.sourceforge.net/DTD/sodipodi-0.dtd"
   xmlns:inkscape="http://www.inkscape.org/namespaces/inkscape"
   height="32"
   width="32"
   version="1.1"
   id="svg22"
   sodipodi:docname="toggleButton.svg"
   inkscape:version="0.92.4 (unknown)">
  <metadata
     id="metadata28">
    <rdf:RDF>
      <cc:Work
         rdf:about="">
        <dc:format>image/svg+xml</dc:format>
        <dc:type
           rdf:resource="http://purl.org/dc/dcmitype/StillImage" />
        <dc:title></dc:title>
      </cc:Work>
    </rdf:RDF>
  </metadata>
  <defs
     id="defs26" />
  <sodipodi:namedview
     pagecolor="#ffffff"
     bordercolor="#666666"
     borderopacity="1"
     objecttolerance="10"
     gridtolerance="10"
     guidetolerance="10"
     inkscape:pageopacity="0"
     inkscape:pageshadow="2"
     inkscape:window-width="1920"
     inkscape:window-height="1026"
     id="namedview24"
     showgrid="false"
     inkscape:pagecheckerboard="true"
     inkscape:zoom="6.3054108"
     inkscape:cx="33.749714"
     inkscape:cy="18.61526"
     inkscape:window-x="0"
     inkscape:window-y="24"
     inkscape:window-maximized="1"
     inkscape:current-layer="g20" />
  <g
     transform="translate(-19,-271.29999)"
     id="g20">
    <path
       d="m 27.835149,281.29999 c -1.835987,0.0667 -3.417373,0.75078 -4.743364,2.05078 C 21.697791,284.71744 21,286.36666 21,288.29999 c 0,1.9 0.697791,3.53372 2.091785,4.90039 1.325991,1.33333 2.907377,2.03294 4.743364,2.09961 h 14.024902 c 1.937985,0 3.620178,-0.69961 5.048168,-2.09961 C 48.302213,291.83371 49,290.19999 49,288.29999 c 0,-1.93333 -0.697787,-3.58255 -2.091781,-4.94922 -1.42799,-1.36667 -3.110183,-2.05078 -5.048168,-2.05078 H 28.139954 Z m 13.668301,2.25 c 1.359988,0 2.514395,0.46706 3.466385,1.40039 0.95199,0.93333 1.428388,2.06706 1.428388,3.40039 0,1.33333 -0.476398,2.46511 -1.428388,3.39844 -0.95199,0.93333 -2.106397,1.40039 -3.466385,1.40039 -1.359987,0 -2.516382,-0.46706 -3.468373,-1.40039 -0.95199,-0.93333 -1.428387,-2.06511 -1.428387,-3.39844 0,-1.33333 0.476397,-2.46706 1.428387,-3.40039 0.951991,-0.93333 2.108386,-1.40039 3.468373,-1.40039 z"
       id="path2"
       style="fill:#fafafc;fill-opacity:1;stroke-width:1.00994694"
       inkscape:connector-curvature="0"
       sodipodi:nodetypes="cssccssscsccsssssssss" />
    <path
       d="m 55.1,303.2 v 0.1 H 55 v -0.1 h 0.1"
       id="path16"
       inkscape:connector-curvature="0"
       style="fill:#000000;fill-opacity:0.41960784;fill-rule:evenodd;stroke:none" />
  </g>
</svg>
