<?xml version="1.0" encoding="UTF-8" standalone="no"?>
<svg
   xmlns:dc="http://purl.org/dc/elements/1.1/"
   xmlns:cc="http://creativecommons.org/ns#"
   xmlns:rdf="http://www.w3.org/1999/02/22-rdf-syntax-ns#"
   xmlns:svg="http://www.w3.org/2000/svg"
   xmlns="http://www.w3.org/2000/svg"
   xmlns:sodipodi="http://sodipodi.sourceforge.net/DTD/sodipodi-0.dtd"
   xmlns:inkscape="http://www.inkscape.org/namespaces/inkscape"
   class="icon"
   height="16"
   viewBox="0 0 16 32"
   version="1.1"
   id="svg4"
   sodipodi:docname="particle.svg"
   inkscape:version="0.92.4 (unknown)"
   width="16">
  <metadata
     id="metadata10">
    <rdf:RDF>
      <cc:Work
         rdf:about="">
        <dc:format>image/svg+xml</dc:format>
        <dc:type
           rdf:resource="http://purl.org/dc/dcmitype/StillImage" />
        <dc:title></dc:title>
      </cc:Work>
    </rdf:RDF>
  </metadata>
  <defs
     id="defs8" />
  <sodipodi:namedview
     pagecolor="#ffffff"
     bordercolor="#666666"
     borderopacity="1"
     objecttolerance="10"
     gridtolerance="10"
     guidetolerance="10"
     inkscape:pageopacity="0"
     inkscape:pageshadow="2"
     inkscape:window-width="1920"
     inkscape:window-height="1026"
     id="namedview6"
     showgrid="false"
     inkscape:zoom="6.1871843"
     inkscape:cx="-11.7346"
     inkscape:cy="-39.142049"
     inkscape:window-x="0"
     inkscape:window-y="24"
     inkscape:window-maximized="1"
     inkscape:current-layer="svg4"
     inkscape:pagecheckerboard="true" />
  <path
     d="m 14.23445,8.9373 c 0,-2.38703 -0.94825,-4.6315 -2.67029,-6.3195 C 9.84211,0.92957 7.5525,0 5.11735,0 2.68199,0 0.39254,0.92957 -1.32946,2.6178 -3.05168,4.3058 -4,6.55027 -4,8.9373 c 0,2.3873 0.94829,4.6318 2.67054,6.3196 1.72197,1.6882 4.01145,2.6178 6.44681,2.6178 2.43515,0 4.72479,-0.9295 6.44678,-2.6178 v 2e-4 c 1.72204,-1.688 2.67032,-3.9325 2.67032,-6.3198 z m -9.1171,6.9713 c -3.92142,0 -7.11161,-3.1273 -7.11161,-6.9713 0,-3.84393 3.19038,-6.97116 7.11161,-6.97116 3.92136,0 7.11156,3.12723 7.11156,6.97116 0,3.844 -3.1902,6.9713 -7.11156,6.9713 z m 11.02669,-0.9764 c -3.22876,0 -5.8557,2.575 -5.8557,5.7403 0,3.1653 2.62694,5.7404 5.8557,5.7404 3.22904,0 5.85596,-2.5751 5.85596,-5.7404 0,-3.1652 -2.62692,-5.7403 -5.85596,-5.7403 z m -10.62177,4.2 c -2.0433,0 -3.70554,1.6296 -3.70554,3.6322 0,2.0029 1.66221,3.6322 3.70554,3.6322 2.04286,0 3.70532,-1.6293 3.70532,-3.6322 0,-2.0026 -1.66225,-3.6322 -3.70532,-3.6322 z m 0,6.0848 c -1.37958,0 -2.50198,-1.1003 -2.50198,-2.4526 0,-1.3523 1.1224,-2.4524 2.50198,-2.4524 1.37957,0 2.50179,1.1001 2.50179,2.4524 0,1.3523 -1.12222,2.4526 -2.50179,2.4526 z M 16.44064,10.5692 c -1.02234,0 -1.85402,0.8153 -1.85402,1.8173 0,1.0022 0.83168,1.8173 1.85402,1.8173 1.02214,0 1.85395,-0.8151 1.85395,-1.8173 0,-1.002 -0.83168,-1.8173 -1.85395,-1.8173 z m 0,3.0444 c -0.69026,0 -1.25184,-0.5505 -1.25184,-1.2271 0,-0.6767 0.56158,-1.227 1.25184,-1.227 0.69024,0 1.25173,0.5503 1.25173,1.227 0,0.6766 -0.56144,1.2271 -1.25173,1.2271 z m -6.1324,12.2624 c -1.7224,0 -3.12377,1.3736 -3.12377,3.0619 0,1.6886 1.40137,3.0621 3.12377,3.0621 1.72245,0 3.12381,-1.3735 3.12381,-3.0621 0,-1.6882 -1.40136,-3.0619 -3.12381,-3.0619 z"
     id="path2"
     inkscape:connector-curvature="0"
     style="fill:#ffffff;fill-opacity:1;stroke-width:0.03157192" />
</svg>
