<?xml version="1.0" encoding="UTF-8" standalone="no"?>
<svg
   xmlns:dc="http://purl.org/dc/elements/1.1/"
   xmlns:cc="http://creativecommons.org/ns#"
   xmlns:rdf="http://www.w3.org/1999/02/22-rdf-syntax-ns#"
   xmlns:svg="http://www.w3.org/2000/svg"
   xmlns="http://www.w3.org/2000/svg"
   xmlns:sodipodi="http://sodipodi.sourceforge.net/DTD/sodipodi-0.dtd"
   xmlns:inkscape="http://www.inkscape.org/namespaces/inkscape"
   height="16"
   viewBox="0 0 12 12"
   width="16"
   version="1.1"
   id="svg4"
   sodipodi:docname="particle_element.svg"
   inkscape:version="0.92.4 (unknown)">
  <metadata
     id="metadata10">
    <rdf:RDF>
      <cc:Work
         rdf:about="">
        <dc:format>image/svg+xml</dc:format>
        <dc:type
           rdf:resource="http://purl.org/dc/dcmitype/StillImage" />
        <dc:title></dc:title>
      </cc:Work>
    </rdf:RDF>
  </metadata>
  <defs
     id="defs8" />
  <sodipodi:namedview
     pagecolor="#ffffff"
     bordercolor="#666666"
     borderopacity="1"
     objecttolerance="10"
     gridtolerance="10"
     guidetolerance="10"
     inkscape:pageopacity="0"
     inkscape:pageshadow="2"
     inkscape:window-width="1920"
     inkscape:window-height="1026"
     id="namedview6"
     showgrid="false"
     inkscape:pagecheckerboard="true"
     units="px"
     inkscape:zoom="11.0625"
     inkscape:cx="12.80092"
     inkscape:cy="-2.25118"
     inkscape:window-x="0"
     inkscape:window-y="24"
     inkscape:window-maximized="1"
     inkscape:current-layer="svg4" />
  <path
     d="m 9.6538694,3.4172206 c -0.3877258,0 -0.7679444,0.097046 -1.1061403,0.2776795 L 7.1737057,2.0379788 C 7.2923581,1.8336331 7.3569945,1.5997159 7.3569945,1.3570096 7.3569945,0.60874908 6.7482603,1.4882767e-5 5.9999998,1.4882767e-5 5.2517394,1.4882767e-5 4.6430052,0.60874908 4.6430052,1.3570096 c 0,0.4009094 0.1794433,0.7749939 0.4726868,1.0284116 L 3.9144285,5.6031337 C 3.6923216,5.5554346 3.4649047,5.5312647 3.2343749,5.5312647 1.4509277,5.5312647 0,6.9821926 0,8.7656396 c 0,1.7834484 1.4509277,3.2343754 3.2343749,3.2343754 1.7834472,0 3.2343749,-1.450927 3.2343749,-3.2343754 0,-0.319702 -0.04596,-0.631439 -0.1363221,-0.931457 l 1.4383851,-0.672729 c 0.4377136,0.586944 1.1358033,0.947937 1.8830566,0.947937 C 10.947509,8.1093906 12,7.0568996 12,5.7632594 12,4.4696191 10.947601,3.4172206 9.6538694,3.4172206 Z M 5.9999998,0.93751488 c 0.2313537,0 0.4194947,0.18814102 0.4194947,0.41949472 0,0.2410584 -0.1960144,0.4195863 -0.4194947,0.4195863 -0.2311706,0 -0.4194947,-0.1875 -0.4194947,-0.4195863 0,-0.2313537 0.1881411,-0.41949472 0.4194947,-0.41949472 z M 3.2343749,11.062516 c -1.2664489,0 -2.29687493,-1.030426 -2.29687493,-2.2968764 0,-1.266449 1.03042603,-2.296874 2.29687493,-2.296874 0.8955689,0 1.7032469,0.517272 2.0808105,1.323577 h 9.37e-5 c 0.015379,0.04514 0.2159707,0.411896 0.2159707,0.973297 0,1.2664504 -1.0304259,2.2968764 -2.2968749,2.2968764 z M 7.3078306,5.7632594 c 0,0.1874083 0.02179,0.3710632 0.064728,0.5495002 L 5.9341737,6.9853976 C 5.6447754,6.5487826 5.2504578,6.1847686 4.7925111,5.9315331 L 5.9936829,2.7139126 c 0.0021,0 0.00421,1.875e-4 0.00632,1.875e-4 0.1547241,0 0.3075256,-0.026825 0.4519043,-0.07782 L 7.8256559,4.2928355 C 7.4926787,4.7060128 7.3078337,5.2220955 7.3078337,5.7632638 Z m 2.3460388,1.4086312 c -0.5440064,0 -1.0447999,-0.318512 -1.2761536,-0.811524 0,-9.4e-5 0,-9.4e-5 -9.37e-5,-1.87e-4 0,-1.88e-4 -9.38e-5,-2.75e-4 -1.875e-4,-3.66e-4 v -9.4e-5 C 8.2897266,6.1726776 8.245324,5.9720849 8.245324,5.7632533 c 0,-0.7857972 0.638031,-1.4085389 1.4085388,-1.4085389 0.7767332,0 1.4086302,0.631897 1.4086302,1.4085389 7e-6,0.7767403 -0.63189,1.4086373 -1.4086236,1.4086373 z m 0,0"
     id="path2"
     inkscape:connector-curvature="0"
     style="stroke-width:0.0234375;fill:#ffffff;fill-opacity:1" />
</svg>
