<?xml version="1.0" encoding="UTF-8" standalone="no"?>
<!-- Generator: Adobe Illustrator 19.0.0, SVG Export Plug-In . SVG Version: 6.00 Build 0)  -->

<svg
   xmlns:dc="http://purl.org/dc/elements/1.1/"
   xmlns:cc="http://creativecommons.org/ns#"
   xmlns:rdf="http://www.w3.org/1999/02/22-rdf-syntax-ns#"
   xmlns:svg="http://www.w3.org/2000/svg"
   xmlns="http://www.w3.org/2000/svg"
   xmlns:sodipodi="http://sodipodi.sourceforge.net/DTD/sodipodi-0.dtd"
   xmlns:inkscape="http://www.inkscape.org/namespaces/inkscape"
   version="1.1"
   id="Capa_1"
   x="0px"
   y="0px"
   viewBox="0 0 16 16"
   xml:space="preserve"
   sodipodi:docname="musical-note.svg"
   width="16"
   height="16"
   inkscape:version="0.92.4 (unknown)"><metadata
   id="metadata39"><rdf:RDF><cc:Work
       rdf:about=""><dc:format>image/svg+xml</dc:format><dc:type
         rdf:resource="http://purl.org/dc/dcmitype/StillImage" /><dc:title></dc:title></cc:Work></rdf:RDF></metadata><defs
   id="defs37" /><sodipodi:namedview
   pagecolor="#ffffff"
   bordercolor="#666666"
   borderopacity="1"
   objecttolerance="10"
   gridtolerance="10"
   guidetolerance="10"
   inkscape:pageopacity="0"
   inkscape:pageshadow="2"
   inkscape:window-width="1920"
   inkscape:window-height="1026"
   id="namedview35"
   showgrid="false"
   inkscape:zoom="9.0777302"
   inkscape:cx="53.590784"
   inkscape:cy="22.412864"
   inkscape:window-x="0"
   inkscape:window-y="24"
   inkscape:window-maximized="1"
   inkscape:current-layer="Capa_1" />
<path
   d="m 13.10904,10.175467 c 0.493541,-0.8320697 0.82094,-1.8844697 0.884465,-2.9257897 0.04031,-0.66837 -0.107504,-1.36997 -0.427573,-2.02972 -0.502092,-1.0364 -1.364567,-1.6186 -2.197723,-2.18112 -0.621813,-0.41973 -1.20942,-0.81607 -1.624777,-1.38227 l -0.07452,-0.10093 c -0.245548,-0.33234 -0.52286,-0.70899 -0.566839,-1.02533 -0.04398,-0.32002 -0.332285,-0.54774 -0.647467,-0.52927 -0.320068,0.0222 -0.568061,0.28925 -0.568061,0.61297 V 11.581137 c -0.511866,-0.31265 -1.14223,-0.50466 -1.832455,-0.50466 -1.683414,0 -3.05409,1.1041 -3.05409,2.46175 0,1.35766 1.370676,2.46176 3.05409,2.46176 1.683415,0 3.054091,-1.1041 3.054091,-2.46176 V 6.3646773 c 0.917449,0.35326 2.41884,1.25303 2.831753,3.35414 -0.07697,0.11447 -0.150261,0.23756 -0.235776,0.3360297 -0.223559,0.25479 -0.199126,0.64375 0.05497,0.86777 0.251657,0.22648 0.637694,0.1994 0.861254,-0.0554 0.163698,-0.1871 0.309074,-0.40619 0.44834,-0.63513 0.01466,-0.0172 0.02814,-0.0357 0.04032,-0.0566 z"
   id="path2"
   inkscape:connector-curvature="0"
   style="stroke-width:0.03832027;fill:#ffffff;fill-opacity:1" />
<g
   id="g4"
   transform="translate(0,-399.96301)">
</g>
<g
   id="g6"
   transform="translate(0,-399.96301)">
</g>
<g
   id="g8"
   transform="translate(0,-399.96301)">
</g>
<g
   id="g10"
   transform="translate(0,-399.96301)">
</g>
<g
   id="g12"
   transform="translate(0,-399.96301)">
</g>
<g
   id="g14"
   transform="translate(0,-399.96301)">
</g>
<g
   id="g16"
   transform="translate(0,-399.96301)">
</g>
<g
   id="g18"
   transform="translate(0,-399.96301)">
</g>
<g
   id="g20"
   transform="translate(0,-399.96301)">
</g>
<g
   id="g22"
   transform="translate(0,-399.96301)">
</g>
<g
   id="g24"
   transform="translate(0,-399.96301)">
</g>
<g
   id="g26"
   transform="translate(0,-399.96301)">
</g>
<g
   id="g28"
   transform="translate(0,-399.96301)">
</g>
<g
   id="g30"
   transform="translate(0,-399.96301)">
</g>
<g
   id="g32"
   transform="translate(0,-399.96301)">
</g>
</svg>