<?xml version="1.0" encoding="UTF-8" standalone="no"?>
<!-- Generator: Adobe Illustrator 19.0.0, SVG Export Plug-In . SVG Version: 6.00 Build 0)  -->

<svg
   xmlns:osb="http://www.openswatchbook.org/uri/2009/osb"
   xmlns:dc="http://purl.org/dc/elements/1.1/"
   xmlns:cc="http://creativecommons.org/ns#"
   xmlns:rdf="http://www.w3.org/1999/02/22-rdf-syntax-ns#"
   xmlns:svg="http://www.w3.org/2000/svg"
   xmlns="http://www.w3.org/2000/svg"
   xmlns:sodipodi="http://sodipodi.sourceforge.net/DTD/sodipodi-0.dtd"
   xmlns:inkscape="http://www.inkscape.org/namespaces/inkscape"
   version="1.1"
   id="Capa_1"
   x="0px"
   y="0px"
   viewBox="0 0 16 16"
   xml:space="preserve"
   sodipodi:docname="music-player.svg"
   width="16"
   height="16"
   inkscape:version="0.92.4 (unknown)"><metadata
   id="metadata39"><rdf:RDF><cc:Work
       rdf:about=""><dc:format>image/svg+xml</dc:format><dc:type
         rdf:resource="http://purl.org/dc/dcmitype/StillImage" /><dc:title></dc:title></cc:Work></rdf:RDF></metadata><defs
   id="defs37"><linearGradient
     id="linearGradient848"
     osb:paint="solid"><stop
       style="stop-color:#000000;stop-opacity:1;"
       offset="0"
       id="stop846" /></linearGradient></defs><sodipodi:namedview
   pagecolor="#ffffff"
   bordercolor="#666666"
   borderopacity="1"
   objecttolerance="10"
   gridtolerance="10"
   guidetolerance="10"
   inkscape:pageopacity="0"
   inkscape:pageshadow="2"
   inkscape:window-width="1920"
   inkscape:window-height="1026"
   id="namedview35"
   showgrid="false"
   inkscape:zoom="12.136524"
   inkscape:cx="15.786059"
   inkscape:cy="14.159554"
   inkscape:window-x="0"
   inkscape:window-y="24"
   inkscape:window-maximized="1"
   inkscape:current-layer="Capa_1" />
<path
   d="m 14.906701,0.072226 c -0.0593,-0.05498 -0.13753,-0.08 -0.216589,-0.07011 L 6.1802872,1.168968 C 6.043581,1.187878 5.9411887,1.310933 5.9411887,1.457263 v 1.750423 1.225325 7.384534 C 5.4399324,11.178991 4.6435776,10.763567 3.7451048,10.763567 2.231454,10.763567 1,11.937983 1,13.381784 1,14.825584 2.231454,16 3.7451048,16 c 1.5136508,0 2.7451048,-1.174416 2.7451048,-2.618216 0,-0.06749 -0.00522,-0.13382 -0.010706,-0.199858 0.00357,-0.01891 0.010706,-0.03607 0.010706,-0.05585 V 4.688728 L 14.451014,3.596932 V 8.90813 C 13.949758,8.269867 13.153402,7.854443 12.254929,7.854443 c -1.51365,0 -2.745104,1.174415 -2.745104,2.618216 0,1.443801 1.231454,2.618217 2.745104,2.618217 1.499925,0 2.721223,-1.153761 2.743184,-2.579525 0,-0.0038 0.0019,-0.007 0.0019,-0.01076 V 3.265877 2.040843 0.290711 c 0,-0.08378 -0.03404,-0.163493 -0.09333,-0.218476 z"
   id="path2"
   inkscape:connector-curvature="0"
   style="stroke-width:0.28259271;fill:#ffffff;fill-opacity:1" />
<g
   id="g4"
   transform="translate(0,-39)">
</g>
<g
   id="g6"
   transform="translate(0,-39)">
</g>
<g
   id="g8"
   transform="translate(0,-39)">
</g>
<g
   id="g10"
   transform="translate(0,-39)">
</g>
<g
   id="g12"
   transform="translate(0,-39)">
</g>
<g
   id="g14"
   transform="translate(0,-39)">
</g>
<g
   id="g16"
   transform="translate(0,-39)">
</g>
<g
   id="g18"
   transform="translate(0,-39)">
</g>
<g
   id="g20"
   transform="translate(0,-39)">
</g>
<g
   id="g22"
   transform="translate(0,-39)">
</g>
<g
   id="g24"
   transform="translate(0,-39)">
</g>
<g
   id="g26"
   transform="translate(0,-39)">
</g>
<g
   id="g28"
   transform="translate(0,-39)">
</g>
<g
   id="g30"
   transform="translate(0,-39)">
</g>
<g
   id="g32"
   transform="translate(0,-39)">
</g>
</svg>